<svg width="161" height="120" viewBox="0 0 161 120" fill="none" xmlns="http://www.w3.org/2000/svg">
<mask id="mask0_7_339" style="mask-type:luminance" maskUnits="userSpaceOnUse" x="0" y="0" width="161" height="120">
<path d="M24.8263 3.92641e-05L0 46.1113L135.539 119.085L160.365 72.9741L24.8263 3.92641e-05Z" fill="white"/>
</mask>
<g mask="url(#mask0_7_339)">
<path style="mix-blend-mode:screen" d="M103.797 84.2301L143.56 104.181L150.863 87.2311L113.457 66.6687C113.457 66.6687 105.525 78.9971 103.797 84.2301Z" fill="url(#paint0_linear_7_339)"/>
<path fill-rule="evenodd" clip-rule="evenodd" d="M97.1331 49.4163L99.55 41.9695C99.55 41.9695 112.603 47.594 122.142 63.2454L121.796 63.8869L103.403 53.3207L102.628 54.6527L97.1331 49.4163Z" fill="url(#paint1_linear_7_339)"/>
<path fill-rule="evenodd" clip-rule="evenodd" d="M80.491 80.401L75.469 86.682C75.469 86.682 87.352 94.479 105.668 93.829L106.014 93.187L87.075 83.669L87.76 82.288L80.491 80.401Z" fill="url(#paint2_linear_7_339)"/>
<path fill-rule="evenodd" clip-rule="evenodd" d="M16.3641 25.9408C11.6371 34.7205 25.1461 59.7264 45.2111 69.0968C65.2751 78.467 98.7261 84.788 98.7261 84.788L104.892 73.6L110.837 62.2945C110.837 62.2945 87.1271 37.8473 68.2751 26.2578C49.4231 14.6683 21.0591 17.2204 16.3641 25.9408Z" fill="url(#paint3_radial_7_339)"/>
<path fill-rule="evenodd" clip-rule="evenodd" d="M98.73 84.794C98.73 84.794 104.492 71.3843 110.841 62.3004C110.841 62.3004 105.309 75.527 98.73 84.794Z" fill="#31165F"/>
<path fill-rule="evenodd" clip-rule="evenodd" d="M18.8209 42.4778C18.8209 42.4778 21.6189 27.9463 32.9029 18.7533C32.9029 18.7533 19.8499 19.6018 16.3639 25.9407C13.2269 31.6441 18.8209 42.4778 18.8209 42.4778Z" fill="url(#paint4_radial_7_339)"/>
<path d="M33.0139 18.893C22.4119 27.36 19.0369 42.3493 18.9959 42.5132L18.6489 42.4396C18.6789 42.2883 22.089 27.1607 32.796 18.615L33.0139 18.893Z" fill="#53345F"/>
<path fill-rule="evenodd" clip-rule="evenodd" d="M15.4591 29.2663L19.3271 22.8672C19.3271 22.8672 15.1821 24.933 15.4591 29.2663Z" fill="#53345F"/>
<path fill-rule="evenodd" clip-rule="evenodd" d="M15.6411 28.1834C16.1051 26.8551 16.7421 25.594 17.5371 24.4327C17.5371 24.4327 14.0561 23.4917 13.3411 24.5614C12.6271 25.631 15.6411 28.1834 15.6411 28.1834Z" fill="url(#paint5_linear_7_339)"/>
<path style="mix-blend-mode:multiply" opacity="0.5" fill-rule="evenodd" clip-rule="evenodd" d="M77.0361 79.824C77.0361 79.824 81.1011 57.5365 93.1611 45.4951C100.281 51.7414 110.839 62.3032 110.839 62.3032C110.839 62.3032 105.016 70.2557 98.7291 84.796C98.7311 84.794 87.4661 83.234 77.0361 79.824Z" fill="url(#paint6_radial_7_339)"/>
<path style="mix-blend-mode:multiply" opacity="0.5" fill-rule="evenodd" clip-rule="evenodd" d="M30.035 34.2491C26.385 42.49 32.6761 53.1667 40.6231 57.9116C48.5691 62.6565 57.5981 57.8078 61.6961 49.6551C65.7941 41.5025 63.9221 31.9 54.5041 28.0324C45.9981 24.5242 34.091 25.0901 30.035 34.2491Z" fill="url(#paint7_radial_7_339)"/>
<path fill-rule="evenodd" clip-rule="evenodd" d="M28.7382 33.5507C25.0882 41.7916 31.3792 52.4684 39.3252 57.2132C47.2722 61.9581 56.3012 57.1094 60.4022 48.9583C64.5022 40.8072 62.6272 31.2031 53.2072 27.3341C44.7042 23.8273 32.7972 24.3933 28.7382 33.5507Z" fill="#31165F"/>
<path fill-rule="evenodd" clip-rule="evenodd" d="M27.8341 33.0638C24.1841 41.3046 30.4752 51.9814 38.4212 56.7263C46.3672 61.4712 55.3971 56.6224 59.4971 48.4713C63.5981 40.3203 61.7231 30.7162 52.3031 26.8471C43.7991 23.3404 31.8931 23.9063 27.8341 33.0638Z" fill="url(#paint8_radial_7_339)"/>
<path fill-rule="evenodd" clip-rule="evenodd" d="M31.0222 34.1024C27.6292 41.432 33.0452 48.9406 39.2582 52.6537C45.4712 56.3668 52.5282 52.5339 55.7502 46.1296C58.9722 39.7253 57.5242 32.2061 50.1762 29.1795C43.5122 26.4335 34.5532 26.4395 31.0222 34.1024Z" fill="#A6345F"/>
<path fill-rule="evenodd" clip-rule="evenodd" d="M57.0269 38.2477C57.3549 40.9397 56.8579 43.6679 55.5999 46.0705C52.5339 52.165 45.1369 56.1471 39.2329 52.6185C37.2119 51.4139 35.4359 49.8393 33.9979 47.9771C31.1679 44.3032 29.9039 39.5365 32.0729 34.6281C35.2559 27.3611 43.9739 27.3348 50.2999 29.9385C54.3599 31.6322 56.5209 34.7532 57.0269 38.2477Z" fill="url(#paint9_linear_7_339)"/>
<path d="M60.415 48.9401L60.3301 49.0984L82.9421 61.2726L83.027 61.1144L60.415 48.9401Z" fill="#53345F"/>
<path d="M77.111 79.835L76.937 79.799C82.409 54.7417 92.983 45.52 93.087 45.4298L93.203 45.5654C93.107 45.663 82.582 54.8532 77.111 79.835Z" fill="#53345F"/>
<path d="M68.665 77.486L68.488 77.503C68.478 77.414 67.788 68.3784 73.563 56.1282L73.718 56.2119C67.953 68.4093 68.658 77.398 68.665 77.486Z" fill="#53345F"/>
<path fill-rule="evenodd" clip-rule="evenodd" d="M100.659 67.3339L90.731 62.3969L91.5089 59.3347L101.798 65.2173L100.659 67.3339Z" fill="#31165F"/>
<path fill-rule="evenodd" clip-rule="evenodd" d="M99.9292 83.041C99.9292 83.041 104.259 72.7715 110.256 63.6511L114.309 66.5953L104.016 84.563L99.9292 83.041Z" fill="url(#paint10_radial_7_339)"/>
<path opacity="0.5" fill-rule="evenodd" clip-rule="evenodd" d="M101.997 83.804C102.138 80.788 102.982 77.846 104.461 75.213C106.913 70.876 113.375 65.9066 113.375 65.9066L110.256 63.6511C110.256 63.6511 103.631 73.545 99.9292 83.041L101.997 83.804Z" fill="#31165F"/>
<path d="M37.0911 31.7315C39.0431 31.1325 41.08 30.8575 43.121 30.9175L43.069 28.9214C43.069 28.9214 39.6501 28.5897 37.4891 30.2474L37.0911 31.7315Z" fill="white"/>
<path d="M42.405 51.4938L45.279 51.4156L45.335 53.0715L43.013 52.9912L42.405 51.4938Z" fill="white"/>
<path style="mix-blend-mode:multiply" opacity="0.5" fill-rule="evenodd" clip-rule="evenodd" d="M21.4031 47.1481C21.4031 47.1481 21.7531 31.2991 36.7971 18.495L32.9031 18.7534C32.9031 18.7534 23.533 25.773 18.821 42.478L21.4031 47.1481Z" fill="url(#paint11_radial_7_339)"/>
<path fill-rule="evenodd" clip-rule="evenodd" d="M74.797 57.5327C74.889 57.5825 74.97 57.65 75.035 57.7312C75.101 57.8124 75.15 57.9058 75.179 58.0059C75.208 58.1061 75.2179 58.2111 75.2069 58.3148C75.1949 58.4186 75.164 58.5191 75.113 58.6106C75.014 58.7964 74.846 58.9353 74.644 58.9971C74.443 59.0588 74.226 59.0382 74.039 58.9399C73.855 58.8386 73.718 58.6683 73.659 58.4663C73.599 58.2643 73.623 58.047 73.723 57.862C73.772 57.7697 73.838 57.688 73.919 57.6214C73.999 57.5549 74.092 57.5049 74.192 57.4743C74.291 57.4437 74.396 57.4331 74.5 57.4431C74.604 57.4531 74.705 57.4836 74.797 57.5327Z" fill="url(#paint12_linear_7_339)"/>
<path fill-rule="evenodd" clip-rule="evenodd" d="M74.7209 57.6739C74.8659 57.7574 74.9719 57.8939 75.0179 58.0545C75.0629 58.2152 75.0439 58.3872 74.9649 58.5342C74.8859 58.6812 74.7529 58.7916 74.5939 58.8421C74.4339 58.8925 74.2619 58.8789 74.1129 58.8042C73.9679 58.7207 73.8619 58.5841 73.8159 58.4235C73.7709 58.2629 73.7899 58.0908 73.8689 57.9439C73.9479 57.7968 74.0809 57.6864 74.2399 57.636C74.3989 57.5856 74.5719 57.5992 74.7209 57.6739Z" fill="url(#paint13_radial_7_339)"/>
<path fill-rule="evenodd" clip-rule="evenodd" d="M71.3639 55.6841C71.5469 55.7866 71.6829 55.9574 71.7409 56.1592C71.7979 56.3611 71.7739 56.5777 71.6729 56.7617C71.5729 56.9474 71.4039 57.086 71.2019 57.1474C71.0009 57.2088 70.7829 57.188 70.5959 57.0896C70.4149 56.9869 70.2799 56.8168 70.2229 56.616C70.1649 56.4152 70.1889 56.1998 70.2889 56.0163C70.3369 55.9235 70.4029 55.8413 70.4839 55.7743C70.5639 55.7074 70.6569 55.657 70.7569 55.6261C70.8569 55.5953 70.9619 55.5845 71.0659 55.5944C71.1709 55.6044 71.2719 55.6348 71.3639 55.6841Z" fill="url(#paint14_linear_7_339)"/>
<path fill-rule="evenodd" clip-rule="evenodd" d="M71.2882 55.8254C71.4332 55.9089 71.5391 56.0455 71.5841 56.2061C71.6301 56.3667 71.6111 56.5388 71.5321 56.6857C71.4531 56.8328 71.3201 56.9432 71.1601 56.9936C71.0011 57.044 70.8292 57.0304 70.6792 56.9557C70.6062 56.916 70.5421 56.862 70.4901 56.797C70.4381 56.732 70.4001 56.6573 70.3781 56.5772C70.3551 56.4972 70.3492 56.4134 70.3592 56.3309C70.3702 56.2485 70.3971 56.1689 70.4381 56.0969C70.4751 56.0226 70.5272 55.9564 70.5902 55.9022C70.6532 55.8481 70.7272 55.8072 70.8062 55.7819C70.8852 55.7566 70.9692 55.7474 71.0512 55.7549C71.1342 55.7624 71.2152 55.7863 71.2882 55.8254Z" fill="url(#paint15_radial_7_339)"/>
<path d="M42.0521 55.7578C42.2611 55.3692 42.1191 54.8866 41.7361 54.6799C41.3521 54.4732 40.871 54.6207 40.662 55.0093C40.452 55.3979 40.5941 55.8805 40.9781 56.0872C41.3621 56.2939 41.8431 56.1464 42.0521 55.7578Z" fill="#31165F"/>
<path fill-rule="evenodd" clip-rule="evenodd" d="M41.6581 54.8169C41.8031 54.9004 41.9091 55.037 41.9551 55.1976C42.0001 55.3582 41.9811 55.5302 41.9021 55.6772C41.8231 55.8242 41.6901 55.9347 41.5311 55.9851C41.3711 56.0355 41.1991 56.0219 41.0501 55.9472C40.9061 55.8633 40.8001 55.7268 40.7551 55.5665C40.7101 55.4063 40.7291 55.2349 40.8081 55.0884C40.8461 55.014 40.8971 54.9478 40.9601 54.8937C41.0231 54.8396 41.0971 54.7987 41.1761 54.7734C41.2551 54.7481 41.3391 54.7389 41.4211 54.7464C41.5041 54.7539 41.5851 54.7778 41.6581 54.8169Z" fill="url(#paint16_radial_7_339)"/>
<path fill-rule="evenodd" clip-rule="evenodd" d="M32.5521 48.143C32.7371 48.2443 32.8741 48.4146 32.9331 48.6166C32.9931 48.8187 32.9692 49.0359 32.8692 49.2209C32.8202 49.3133 32.7531 49.3952 32.6731 49.462C32.5931 49.5287 32.5002 49.5789 32.4002 49.6098C32.3002 49.6406 32.1952 49.6515 32.0912 49.6418C31.9872 49.632 31.8862 49.6019 31.7932 49.5531C31.7022 49.5028 31.6211 49.435 31.5551 49.3534C31.4901 49.2719 31.4411 49.1783 31.4121 49.0779C31.3831 48.9776 31.3742 48.8724 31.3852 48.7685C31.3962 48.6646 31.4282 48.564 31.4792 48.4724C31.5782 48.2866 31.7462 48.1476 31.9472 48.0859C32.1492 48.0242 32.3661 48.0447 32.5521 48.143Z" fill="#31165F"/>
<path fill-rule="evenodd" clip-rule="evenodd" d="M32.4721 48.2928C32.6161 48.3763 32.7231 48.5129 32.7681 48.6735C32.8141 48.8341 32.7951 49.0061 32.7161 49.1531C32.6371 49.3001 32.5031 49.4106 32.3441 49.461C32.1851 49.5114 32.0121 49.4978 31.8631 49.4231C31.7191 49.3396 31.6121 49.203 31.5671 49.0424C31.5211 48.8818 31.5401 48.7097 31.6191 48.5628C31.6981 48.4157 31.8321 48.3053 31.9911 48.2549C32.1501 48.2045 32.3221 48.2181 32.4721 48.2928Z" fill="url(#paint17_radial_7_339)"/>
<path fill-rule="evenodd" clip-rule="evenodd" d="M53.0561 52.2784C53.1481 52.3283 53.2281 52.3957 53.2941 52.4769C53.3601 52.5582 53.408 52.6515 53.438 52.7517C53.467 52.8518 53.4771 52.9568 53.4651 53.0606C53.4541 53.1643 53.4221 53.2648 53.3721 53.3563C53.2731 53.5421 53.1041 53.6811 52.9031 53.7428C52.7021 53.8045 52.484 53.784 52.298 53.6857C52.114 53.5844 51.977 53.4141 51.917 53.2121C51.858 53.01 51.881 52.7928 51.982 52.6078C52.031 52.5155 52.097 52.4337 52.177 52.3672C52.258 52.3007 52.3511 52.2506 52.4501 52.22C52.5501 52.1894 52.655 52.1788 52.759 52.1889C52.863 52.1989 52.9641 52.2293 53.0561 52.2784Z" fill="#31165F"/>
<path fill-rule="evenodd" clip-rule="evenodd" d="M52.975 52.4281C53.12 52.5117 53.226 52.6482 53.272 52.8088C53.317 52.9695 53.298 53.1415 53.219 53.2885C53.14 53.4355 53.0071 53.5459 52.8481 53.5963C52.6881 53.6468 52.5161 53.6332 52.3671 53.5585C52.2221 53.4749 52.1161 53.3384 52.0701 53.1778C52.0251 53.0172 52.043 52.8451 52.123 52.6981C52.202 52.5511 52.3351 52.4407 52.4941 52.3903C52.6531 52.3399 52.826 52.3534 52.975 52.4281Z" fill="url(#paint18_radial_7_339)"/>
<path fill-rule="evenodd" clip-rule="evenodd" d="M59.7621 41.8269C59.8541 41.8768 59.9351 41.9443 60.0011 42.0256C60.0661 42.1069 60.1151 42.2003 60.1451 42.3005C60.1751 42.4007 60.1841 42.5058 60.1731 42.6097C60.1621 42.7137 60.1311 42.8145 60.0811 42.9063C59.9811 43.0919 59.8121 43.2305 59.6101 43.292C59.4081 43.3534 59.1911 43.3326 59.0041 43.2341C58.8201 43.1328 58.6831 42.9625 58.6231 42.7605C58.5641 42.5585 58.5871 42.3412 58.6881 42.1562C58.7371 42.0639 58.8031 41.9822 58.8841 41.9156C58.9641 41.8491 59.0571 41.7991 59.1571 41.7685C59.2561 41.7379 59.3611 41.7273 59.4651 41.7373C59.5691 41.7473 59.6701 41.7778 59.7621 41.8269Z" fill="#31165F"/>
<path fill-rule="evenodd" clip-rule="evenodd" d="M59.6812 41.9766C59.8262 42.0601 59.9322 42.1966 59.9772 42.3572C60.0232 42.5179 60.0042 42.6899 59.9252 42.8369C59.8462 42.9839 59.7132 43.0943 59.5532 43.1447C59.3942 43.1951 59.2222 43.1816 59.0722 43.1069C58.9992 43.0671 58.9352 43.0132 58.8832 42.9481C58.8322 42.8831 58.7932 42.8084 58.7712 42.7283C58.7482 42.6483 58.7422 42.5646 58.7522 42.4821C58.7632 42.3996 58.7902 42.32 58.8312 42.2481C58.8692 42.1737 58.9202 42.1075 58.9832 42.0534C59.0462 41.9993 59.1202 41.9584 59.1992 41.9331C59.2782 41.9078 59.3622 41.8986 59.4442 41.906C59.5272 41.9135 59.6082 41.9375 59.6812 41.9766Z" fill="url(#paint19_radial_7_339)"/>
<path d="M57.5611 32.029C57.7701 31.6404 57.6291 31.1579 57.2451 30.9512C56.8611 30.7445 56.3801 30.8919 56.1711 31.2805C55.9621 31.6691 56.1031 32.1517 56.4871 32.3584C56.8711 32.5651 57.3521 32.4176 57.5611 32.029Z" fill="#31165F"/>
<path fill-rule="evenodd" clip-rule="evenodd" d="M57.168 31.0924C57.313 31.176 57.4189 31.3125 57.4649 31.4731C57.5099 31.6338 57.4919 31.8058 57.4119 31.9528C57.3329 32.0998 57.1999 32.2102 57.0409 32.2606C56.8819 32.3111 56.7089 32.2975 56.5599 32.2228C56.4149 32.1392 56.3089 32.0027 56.2639 31.8421C56.2179 31.6815 56.2369 31.5094 56.3159 31.3625C56.3949 31.2154 56.5279 31.105 56.6869 31.0546C56.8469 31.0042 57.019 31.0178 57.168 31.0924Z" fill="url(#paint20_radial_7_339)"/>
<path fill-rule="evenodd" clip-rule="evenodd" d="M44.3071 25.4437C44.3991 25.4936 44.4801 25.561 44.5461 25.6422C44.6111 25.7235 44.6601 25.8168 44.6891 25.917C44.7191 26.0171 44.7281 26.1221 44.7171 26.2258C44.7061 26.3296 44.6741 26.4301 44.6241 26.5216C44.5251 26.7074 44.3561 26.8464 44.1551 26.9081C43.9531 26.9698 43.7361 26.9493 43.5501 26.8509C43.3661 26.7499 43.2291 26.5802 43.1691 26.3789C43.1101 26.1775 43.1321 25.9608 43.2321 25.7759C43.2801 25.6832 43.3471 25.6009 43.4271 25.534C43.5081 25.467 43.6001 25.4167 43.7001 25.3858C43.8001 25.3549 43.9051 25.3441 44.0101 25.3541C44.1141 25.364 44.2151 25.3945 44.3071 25.4437Z" fill="#31165F"/>
<path fill-rule="evenodd" clip-rule="evenodd" d="M44.2312 25.5849C44.3762 25.6684 44.4822 25.805 44.5282 25.9656C44.5732 26.1262 44.5551 26.2982 44.4751 26.4452C44.3961 26.5922 44.2632 26.7027 44.1042 26.7531C43.9452 26.8035 43.7721 26.7899 43.6231 26.7152C43.4781 26.6317 43.3721 26.4951 43.3261 26.3345C43.2811 26.1739 43.3002 26.0018 43.3792 25.8549C43.4582 25.7079 43.5912 25.5974 43.7502 25.547C43.9102 25.4966 44.0822 25.5102 44.2312 25.5849Z" fill="url(#paint21_radial_7_339)"/>
<path fill-rule="evenodd" clip-rule="evenodd" d="M34.9631 27.5675C35.0541 27.6173 35.135 27.6848 35.201 27.766C35.266 27.8472 35.315 27.9406 35.345 28.0407C35.374 28.1409 35.3831 28.2459 35.3721 28.3496C35.3611 28.4534 35.329 28.5539 35.279 28.6454C35.18 28.8312 35.011 28.9701 34.81 29.0319C34.609 29.0936 34.3911 29.073 34.2051 28.9747C34.0201 28.8734 33.883 28.7031 33.824 28.5011C33.765 28.2991 33.788 28.0818 33.889 27.8969C33.937 27.8046 34.004 27.7228 34.084 27.6563C34.165 27.5897 34.257 27.5397 34.357 27.5091C34.457 27.4785 34.5621 27.4679 34.6661 27.4779C34.7701 27.488 34.8701 27.5184 34.9631 27.5675Z" fill="#31165F"/>
<path fill-rule="evenodd" clip-rule="evenodd" d="M34.8821 27.7173C35.0271 27.8008 35.133 27.9374 35.179 28.098C35.224 28.2586 35.205 28.4307 35.126 28.5776C35.047 28.7246 34.914 28.8351 34.755 28.8855C34.596 28.9359 34.423 28.9223 34.274 28.8476C34.129 28.7641 34.023 28.6276 33.977 28.4669C33.932 28.3063 33.9511 28.1343 34.0301 27.9873C34.1091 27.8403 34.242 27.7299 34.401 27.6794C34.561 27.629 34.7331 27.6426 34.8821 27.7173Z" fill="url(#paint22_radial_7_339)"/>
<path fill-rule="evenodd" clip-rule="evenodd" d="M28.94 36.3713C29.125 36.4726 29.2609 36.6429 29.3209 36.8449C29.3799 37.0469 29.3569 37.2642 29.2559 37.4491C29.2079 37.5414 29.1409 37.6232 29.0609 37.6898C28.9799 37.7563 28.888 37.8063 28.788 37.8369C28.688 37.8675 28.583 37.8781 28.479 37.8681C28.375 37.8581 28.274 37.8276 28.182 37.7785C28.091 37.7286 28.0089 37.6611 27.9439 37.5798C27.8779 37.4986 27.829 37.4051 27.799 37.3049C27.77 37.2047 27.76 37.0996 27.771 36.9956C27.782 36.8917 27.8129 36.7909 27.8629 36.6991C27.9629 36.5135 28.1319 36.3748 28.3339 36.3134C28.5359 36.252 28.754 36.2728 28.94 36.3713Z" fill="#31165F"/>
<path fill-rule="evenodd" clip-rule="evenodd" d="M28.8591 36.5211C28.9321 36.5609 28.9971 36.6149 29.0491 36.6799C29.1001 36.7449 29.1391 36.8196 29.1611 36.8997C29.1841 36.9797 29.1901 37.0634 29.1791 37.1459C29.1691 37.2284 29.1421 37.308 29.1001 37.3799C29.0631 37.4543 29.0121 37.5205 28.9491 37.5746C28.8851 37.6287 28.8121 37.6696 28.7331 37.6949C28.6541 37.7202 28.5701 37.7294 28.4871 37.722C28.4051 37.7145 28.3241 37.6905 28.2511 37.6515C28.1061 37.5679 28.0001 37.4314 27.9541 37.2707C27.9091 37.1101 27.9281 36.9381 28.0071 36.7911C28.0861 36.6441 28.2191 36.5337 28.3781 36.4833C28.5381 36.4328 28.7101 36.4464 28.8591 36.5211Z" fill="url(#paint23_radial_7_339)"/>
<path fill-rule="evenodd" clip-rule="evenodd" d="M106.007 93.1981L106.286 92.6811L87.32 83.1371L87.063 83.6621L106.007 93.1981Z" fill="#6F2561"/>
<path fill-rule="evenodd" clip-rule="evenodd" d="M103.405 53.3107L103.108 53.8144L121.606 64.2258L121.795 63.8754L103.405 53.3107Z" fill="#6F2561"/>
<path fill-rule="evenodd" clip-rule="evenodd" d="M87.251 57.7715L88.249 55.9178L116.58 73.562L115.885 74.854L87.251 57.7715Z" fill="url(#paint24_linear_7_339)"/>
<path fill-rule="evenodd" clip-rule="evenodd" d="M87.251 57.7715L93.047 62.5575L115.885 74.854L87.251 57.7715Z" fill="#FF4C61"/>
<path opacity="0.5" fill-rule="evenodd" clip-rule="evenodd" d="M89.1201 56.4596L110.841 62.3004L108.185 66.6513L112.811 69.2151L112.005 70.7127L89.1201 56.4596Z" fill="#31165F"/>
<path d="M26.243 51.5764C26.243 51.5764 24.1261 50.6738 23.5801 48.7102L24.1981 47.6835C25.0341 48.7624 25.8121 49.8845 26.5291 51.0452L26.243 51.5764Z" fill="white"/>
<g style="mix-blend-mode:soft-light">
<path d="M88.2051 42.8383L80.5261 36.2032L80.8161 35.6635L88.5491 42.1996L88.2051 42.8383Z" fill="white"/>
</g>
<path fill-rule="evenodd" clip-rule="evenodd" d="M50.3821 19.5765C50.3821 19.5765 51.476 15.9408 53.988 20.3734L50.3821 19.5765Z" fill="url(#paint25_linear_7_339)"/>
<path fill-rule="evenodd" clip-rule="evenodd" d="M29.412 57.4821C29.412 57.4821 28.667 60.999 31.94 59.9766L29.412 57.4821Z" fill="url(#paint26_linear_7_339)"/>
<g style="mix-blend-mode:soft-light" opacity="0.5">
<path fill-rule="evenodd" clip-rule="evenodd" d="M100.121 81.446C100.121 81.446 69.7272 75.987 48.6572 68.911L48.6162 69.9536C48.6162 69.9536 80.3612 81.92 98.9332 84.323L100.121 81.446Z" fill="white"/>
</g>
<g style="mix-blend-mode:soft-light">
<path fill-rule="evenodd" clip-rule="evenodd" d="M78.7051 34.8398L73.8521 30.9697L74.1291 30.4554L78.9821 34.3255L78.7051 34.8398Z" fill="white"/>
</g>
<g style="mix-blend-mode:soft-light">
<path fill-rule="evenodd" clip-rule="evenodd" d="M69.0691 73.65C69.0691 73.65 69.6151 66.712 71.9801 61.1003C71.9801 61.1003 70.2921 67.0513 69.0691 73.65Z" fill="white"/>
</g>
<g style="mix-blend-mode:soft-light">
<path fill-rule="evenodd" clip-rule="evenodd" d="M62.615 49.8911L82.507 60.4294C82.507 60.4294 75.51 56.2101 62.615 49.8911Z" fill="white"/>
</g>
<g style="mix-blend-mode:soft-light">
<path fill-rule="evenodd" clip-rule="evenodd" d="M78.4001 75.328C78.4001 75.328 81.7121 59.8884 91.0861 48.4277C91.1001 48.4353 83.6831 56.667 78.4001 75.328Z" fill="white"/>
</g>
<path fill-rule="evenodd" clip-rule="evenodd" d="M27.9601 44.3252C27.9601 44.3252 29.6631 42.8948 26.8801 40.0221C27.0631 41.495 27.4261 42.9401 27.9601 44.3252Z" fill="white"/>
<g style="mix-blend-mode:soft-light">
<path fill-rule="evenodd" clip-rule="evenodd" d="M60.2571 46.8246C60.2571 46.8246 62.3831 42.3342 60.4841 34.642C60.4701 34.6344 63.0701 40.036 60.2571 46.8246Z" fill="white"/>
</g>
<g style="mix-blend-mode:soft-light">
<path fill-rule="evenodd" clip-rule="evenodd" d="M55.5691 46.4327C55.5691 46.4327 59.6491 43.7088 57.3321 39.0969C57.3401 39.1014 58.0381 42.0906 55.5691 46.4327Z" fill="white"/>
</g>
<g style="mix-blend-mode:soft-light" opacity="0.36">
<g style="mix-blend-mode:soft-light" opacity="0.36">
<path fill-rule="evenodd" clip-rule="evenodd" d="M63.657 51.7462C63.688 52.0544 63.666 52.6036 64.047 52.7143C64.226 52.7446 64.406 52.7649 64.587 52.7751C64.745 52.8056 64.899 52.8521 65.048 52.914C65.292 53.0152 65.559 53.0443 65.819 52.9976C65.986 52.9524 65.935 52.7829 65.861 52.6557C65.799 52.5104 65.7 52.384 65.574 52.2895C65.395 52.1905 65.227 52.0733 65.073 51.9398C65.014 51.8863 64.981 51.7991 64.917 51.7426C64.828 51.6815 64.734 51.6305 64.634 51.5905C64.476 51.5104 64.296 51.4823 64.121 51.5102C63.945 51.5382 63.783 51.6207 63.657 51.7462Z" fill="white"/>
</g>
<g style="mix-blend-mode:soft-light" opacity="0.36">
<path fill-rule="evenodd" clip-rule="evenodd" d="M65.999 54.195C65.951 54.1894 65.9059 54.1697 65.8699 54.1384C65.8329 54.1071 65.8069 54.0656 65.7939 54.0193C65.9769 53.6802 66.7079 53.9206 66.6639 54.3055C66.6159 54.7535 66.0949 54.531 65.9379 54.3008L65.999 54.195Z" fill="white"/>
</g>
<g style="mix-blend-mode:soft-light" opacity="0.36">
<path fill-rule="evenodd" clip-rule="evenodd" d="M66.8741 62.6962C66.8841 62.4754 66.8471 62.266 66.9971 62.0954C67.1231 61.9559 67.291 61.8608 67.475 61.8241C67.702 61.7892 67.9351 61.8036 68.1561 61.8663C68.2671 61.8703 68.374 61.9065 68.464 61.9704C68.801 62.2864 68.83 62.8961 68.753 63.3102C68.721 63.5518 68.662 63.789 68.576 64.017C68.496 64.1668 68.4491 64.3348 68.3951 64.4955C68.3701 64.6345 68.316 64.7668 68.237 64.8841C68.143 64.9655 68.0381 65.0316 67.9241 65.08C67.7771 65.1541 67.615 65.1911 67.451 65.1879C67.287 65.1847 67.126 65.1413 66.982 65.0616C66.481 64.7664 66.405 63.9269 66.422 63.3933C66.44 62.9616 66.5231 62.2993 66.8741 62.6962Z" fill="white"/>
</g>
<g style="mix-blend-mode:soft-light" opacity="0.36">
<path fill-rule="evenodd" clip-rule="evenodd" d="M67.0521 60.7C67.1711 60.8257 67.1931 60.8924 67.3501 60.8239C67.4001 60.7921 67.4421 60.75 67.4741 60.7004C67.5051 60.6508 67.5261 60.5949 67.5341 60.5365C67.5721 60.3237 67.4241 59.9488 67.1721 59.9771C67.0451 59.9962 66.7922 60.0675 66.7052 60.1668C66.6512 60.2976 66.6442 60.4434 66.6872 60.5784C66.7302 60.7135 66.8192 60.8291 66.9392 60.9048L67.0521 60.7Z" fill="white"/>
</g>
<g style="mix-blend-mode:soft-light" opacity="0.36">
<path fill-rule="evenodd" clip-rule="evenodd" d="M75.6991 56.6223C75.7631 56.6865 75.8371 56.7389 75.9191 56.7768C76.1171 56.8833 76.3141 56.9898 76.5151 57.0978C76.8881 57.2987 77.2331 57.5575 77.6151 57.7629C77.8911 57.9029 78.1781 58.0196 78.4731 58.1119C78.6241 58.167 78.7771 58.2143 78.9331 58.2536C78.9491 58.2226 78.8761 58.1758 78.8531 58.145C78.7741 58.0406 78.6731 57.95 78.6031 57.8431C78.4471 57.5985 78.2791 57.3479 78.1051 57.1158C78.0661 57.0773 78.0321 57.0344 78.0031 56.9878C77.9751 56.9252 77.9591 56.8471 77.9351 56.7832C77.8921 56.662 77.8301 56.5486 77.7511 56.4474C77.5501 56.2291 77.3041 56.0578 77.0291 55.946C76.9421 55.8988 76.8461 55.8801 76.7601 55.8373C76.6661 55.7863 76.5681 55.7411 76.4681 55.7021C76.2521 55.6355 76.0241 55.6121 75.7981 55.6331C75.5381 55.6424 75.1191 55.5881 74.9231 55.8176C74.8271 55.9268 74.9401 56.0493 75.0311 56.1239C75.1221 56.1984 75.2761 56.2849 75.3951 56.3747C75.5151 56.4645 75.7361 56.6636 75.6991 56.6223Z" fill="white"/>
</g>
<g style="mix-blend-mode:soft-light" opacity="0.36">
<path fill-rule="evenodd" clip-rule="evenodd" d="M74.0791 55.4002C74.0161 55.2934 73.8681 55.1152 73.9941 54.9898C74.1201 54.8643 74.3001 54.9689 74.4031 55.0424C74.6421 55.2219 74.2011 55.4182 74.0321 55.2982L74.0791 55.4002Z" fill="white"/>
</g>
<g style="mix-blend-mode:soft-light" opacity="0.36">
<path fill-rule="evenodd" clip-rule="evenodd" d="M77.097 53.7079C77.157 53.8141 77.251 53.897 77.364 53.9428C77.442 53.9688 77.528 53.9637 77.602 53.9285C77.677 53.8934 77.735 53.8308 77.765 53.7539C77.894 53.5137 77.933 53.3196 77.727 53.1468C77.641 53.0936 77.545 53.0593 77.444 53.0461C77.344 53.0329 77.242 53.0412 77.145 53.0703C77.068 53.1004 77.003 53.1549 76.959 53.2255C76.88 53.3725 76.944 53.4979 77.022 53.6237L77.097 53.7079Z" fill="white"/>
</g>
<g style="mix-blend-mode:soft-light" opacity="0.36">
<path fill-rule="evenodd" clip-rule="evenodd" d="M87.478 52.3133C87.492 51.8575 87.561 51.405 87.682 50.9654C87.826 50.5953 87.99 50.2335 88.175 49.8819C88.358 49.3641 88.504 48.834 88.613 48.2955C88.711 47.8228 88.923 47.3814 89.232 47.0105C89.36 46.8611 89.517 46.7393 89.693 46.6525C89.87 46.5658 90.062 46.5159 90.258 46.5059C90.496 46.5154 90.731 46.5652 90.952 46.6532C91.051 46.7065 91.152 46.7354 91.251 46.7743C91.316 46.789 91.379 46.8107 91.439 46.8389C91.532 46.8891 91.511 46.9286 91.463 47.0162C91.391 47.1753 91.271 47.3081 91.12 47.3964C90.869 47.5663 90.65 47.7788 90.472 48.0244C90.29 48.2544 90.1 48.4654 89.933 48.7074L89.435 49.4088C89.289 49.6069 89.136 49.8018 88.991 50.0042C88.845 50.2066 88.728 50.417 88.599 50.6241C88.469 50.8313 88.407 50.9802 88.311 51.1582C88.25 51.2712 88.173 51.368 88.112 51.481C88.065 51.5683 88.012 51.6517 87.952 51.7303C87.903 51.8118 87.858 51.8957 87.817 51.9818C87.716 52.1046 87.603 52.2158 87.478 52.3133Z" fill="white"/>
</g>
<g style="mix-blend-mode:soft-light" opacity="0.36">
<path fill-rule="evenodd" clip-rule="evenodd" d="M87.165 49.1779C87.181 49.256 87.1811 49.3507 87.2411 49.4014C87.2751 49.4267 87.312 49.4467 87.351 49.4607C87.529 49.5092 87.682 49.2453 87.752 49.1153C87.971 48.7426 88.041 48.3011 87.948 47.8792C87.914 47.7353 87.847 47.6013 87.753 47.4874C87.659 47.3735 87.5401 47.2828 87.4051 47.2223C87.0331 47.1134 86.652 47.3747 86.414 47.6475C86.176 47.9203 85.958 48.3057 86.062 48.6535C86.091 48.7761 86.161 48.8853 86.259 48.9639C86.35 49.0073 86.442 49.0452 86.537 49.0771C86.656 49.141 86.724 49.2579 86.874 49.2582C86.977 49.2631 87.079 49.235 87.165 49.1779Z" fill="white"/>
</g>
<g style="mix-blend-mode:soft-light" opacity="0.36">
<path fill-rule="evenodd" clip-rule="evenodd" d="M88.357 47.0242C88.318 47.0201 88.282 47.0037 88.253 46.9776C88.223 46.9515 88.203 46.9168 88.195 46.8786C88.172 46.8412 88.162 46.7972 88.167 46.7536C88.172 46.71 88.192 46.6694 88.222 46.6382C88.248 46.6095 88.28 46.5866 88.315 46.5712C88.351 46.5559 88.389 46.5483 88.428 46.5491C88.467 46.5498 88.505 46.5589 88.54 46.5757C88.574 46.5924 88.605 46.6165 88.63 46.6462C88.657 46.6926 88.672 46.745 88.674 46.7988C88.676 46.8525 88.664 46.9058 88.639 46.9538C88.614 47.0058 88.573 47.0478 88.521 47.0728C88.469 47.0979 88.41 47.1045 88.354 47.0916L88.357 47.0242Z" fill="white"/>
</g>
<g style="mix-blend-mode:soft-light" opacity="0.36">
<path fill-rule="evenodd" clip-rule="evenodd" d="M82.0991 40.0573C82.0691 40.1949 82.0932 40.3389 82.1682 40.4586C82.1812 40.494 82.2051 40.5248 82.2351 40.5472C82.2661 40.5695 82.3032 40.5824 82.3402 40.5844C82.5962 40.5817 82.8412 40.4878 83.0332 40.3196C83.0952 40.2611 83.1452 40.1909 83.1792 40.113C83.2142 40.0352 83.2322 39.9513 83.2342 39.8662C83.2132 39.7154 83.1692 39.5687 83.1032 39.4315C83.0572 39.308 83.0031 39.1915 82.9351 39.0674C82.9051 38.9619 82.8421 38.8688 82.7561 38.8018C82.6691 38.7348 82.5631 38.6975 82.4541 38.6953C82.3351 38.7072 82.2212 38.748 82.1222 38.814C82.0232 38.8801 81.9422 38.9696 81.8852 39.0744C81.8222 39.2238 81.7962 39.3859 81.8092 39.5474C81.8202 39.7172 81.8011 39.8602 82.0991 40.0573Z" fill="white"/>
</g>
<g style="mix-blend-mode:soft-light" opacity="0.36">
<path fill-rule="evenodd" clip-rule="evenodd" d="M82.5081 41.2213C82.5741 41.1176 82.6601 41.0276 82.7601 40.9561C82.8081 40.982 82.8651 40.9363 82.9101 40.9894C82.9541 41.0424 82.8781 41.1837 82.8421 41.2443C82.7951 41.3246 82.7201 41.3844 82.6311 41.4117C82.5981 41.4193 82.4591 41.4611 82.4881 41.3859L82.5081 41.2213Z" fill="white"/>
</g>
<g style="mix-blend-mode:soft-light" opacity="0.36">
<path fill-rule="evenodd" clip-rule="evenodd" d="M83.507 54.3672C83.592 54.5004 83.687 54.6497 83.888 54.6012C83.972 54.5643 84.044 54.503 84.093 54.4253C84.143 54.3475 84.168 54.2568 84.166 54.1645C84.175 54.0743 84.182 53.9726 84.106 53.9172C84.031 53.8618 83.934 53.8244 83.849 53.7787C83.649 53.6707 83.617 53.384 83.326 53.4642C83.257 53.4862 83.194 53.5229 83.141 53.5716C83.088 53.6203 83.045 53.6799 83.017 53.7464C82.946 53.974 83.102 54.1926 83.236 54.3561L83.507 54.3672Z" fill="white"/>
</g>
<g style="mix-blend-mode:soft-light" opacity="0.36">
<path fill-rule="evenodd" clip-rule="evenodd" d="M82.0869 74.7611C82.0139 75.0181 82.015 75.289 82.088 75.545L82.176 75.5931C82.231 75.6661 82.302 75.726 82.383 75.77C82.464 75.813 82.553 75.8391 82.645 75.8451C83.229 75.8501 83.434 75.3411 83.667 74.9011C83.9 74.4621 84.292 73.8631 83.533 73.7351C83.197 73.6821 82.635 73.5551 82.304 73.7301C82.126 73.8231 82.134 73.9231 82.109 74.0911C82.05 74.3221 82.036 74.562 82.068 74.798L82.0869 74.7611Z" fill="white"/>
</g>
<g style="mix-blend-mode:soft-light" opacity="0.36">
<path fill-rule="evenodd" clip-rule="evenodd" d="M85.6991 69.7805C85.6141 69.6401 85.4271 69.4047 85.5061 69.2103C85.5851 69.016 85.6851 69.0478 85.8191 68.9815C86.1131 68.8339 86.4561 68.7265 86.6291 69.1223C86.6631 69.2282 86.6721 69.3405 86.6561 69.4506C86.6401 69.5606 86.5981 69.6655 86.5351 69.757C86.4231 69.8972 86.0951 70.0596 85.9421 69.9113L85.6991 69.7805Z" fill="white"/>
</g>
<g style="mix-blend-mode:soft-light" opacity="0.36">
<path fill-rule="evenodd" clip-rule="evenodd" d="M57.3049 25.5928C57.5649 25.9554 57.5769 25.9802 57.9869 26.0729C58.2929 26.1804 58.621 26.2106 58.942 26.1607C59.377 26.0303 59.493 25.6375 59.749 25.338C59.848 25.2529 59.9229 25.1432 59.9669 25.02C60.0099 24.8968 60.0199 24.7644 59.9959 24.6361C59.9319 24.2993 59.8059 23.9772 59.6259 23.6858C59.3119 23.2411 58.904 22.8709 58.431 22.6012C57.959 22.3316 57.432 22.1692 56.89 22.1255C56.227 22.0781 55.4199 22.1068 54.9199 22.6288C54.7049 22.8422 54.552 23.1097 54.476 23.403C54.4 23.6964 54.4049 24.0048 54.4899 24.2957C54.5979 24.5769 54.772 24.8279 54.997 25.0279C55.222 25.2278 55.4919 25.3708 55.7839 25.4449L56.2009 25.5379C56.3659 25.6069 56.5239 25.692 56.6729 25.792C56.8529 25.8563 57.0549 25.8408 57.3049 25.5928Z" fill="white"/>
</g>
<g style="mix-blend-mode:soft-light" opacity="0.36">
<path fill-rule="evenodd" clip-rule="evenodd" d="M58.145 27.3026C58.612 27.1129 58.52 27.1403 58.894 27.265C59.056 27.323 59.121 27.2776 59.244 27.3876C59.32 27.4769 59.367 27.587 59.38 27.7037C59.393 27.8204 59.37 27.9381 59.314 28.0416C59.237 28.1857 58.834 28.2568 58.696 28.2555C58.611 28.2588 58.527 28.2369 58.454 28.1925C58.382 28.1482 58.324 28.0834 58.287 28.0062L58.145 27.3026Z" fill="white"/>
</g>
<g style="mix-blend-mode:soft-light" opacity="0.36">
<path fill-rule="evenodd" clip-rule="evenodd" d="M39.6551 61.4548C39.9001 61.6776 40.203 61.9682 40.588 61.753C40.844 61.6028 40.892 61.1878 40.848 60.9122C40.732 60.4397 40.468 60.0167 40.094 59.7048C39.749 59.4531 39.11 59.6922 38.882 60.0141C38.418 60.6721 39.317 61.637 39.805 61.9691L39.6551 61.4548Z" fill="white"/>
</g>
<g style="mix-blend-mode:soft-light" opacity="0.36">
<path fill-rule="evenodd" clip-rule="evenodd" d="M42.6041 63.6692C42.5001 63.6646 42.1721 63.7064 42.0851 63.6234C42.0371 63.5975 42.0671 63.5223 42.0391 63.4784C41.9891 63.4062 41.9541 63.324 41.9381 63.2373C41.9221 63.1506 41.9241 63.0614 41.9451 62.9758C41.9941 62.8022 42.0981 62.6494 42.2421 62.5411C42.3861 62.4328 42.5621 62.375 42.7421 62.3767C42.8591 62.3604 42.9791 62.3875 43.0781 62.4529C43.1771 62.5182 43.2481 62.6174 43.2801 62.7319C43.3221 62.8851 43.3061 63.0486 43.2351 63.1907C43.1641 63.3329 43.0421 63.4436 42.8941 63.5014L42.6041 63.6692Z" fill="white"/>
</g>
<g style="mix-blend-mode:soft-light" opacity="0.36">
<path fill-rule="evenodd" clip-rule="evenodd" d="M96.6001 52.6137C96.9881 53.0881 97.5211 53.4224 98.1171 53.5657C98.4961 53.682 98.9711 53.8758 99.3231 53.5878C100.146 52.912 98.6631 51.2532 98.1611 50.7756C97.7271 50.3576 97.2101 50.0357 96.6441 49.8308C96.3051 49.7215 95.5611 49.6344 95.2391 49.8544C94.8241 50.1376 94.8271 50.7265 95.0111 51.1168C95.4131 52.0623 96.4071 52.3968 97.0711 53.086L96.6001 52.6137Z" fill="white"/>
</g>
<g style="mix-blend-mode:soft-light" opacity="0.36">
<path fill-rule="evenodd" clip-rule="evenodd" d="M96.238 52.9946C96.139 53.2157 96.0721 53.4495 96.0391 53.6893C96.0491 53.8189 96.0631 54.0232 96.1691 54.1241C96.2441 54.173 96.33 54.2022 96.42 54.2089C96.509 54.2156 96.5991 54.1997 96.6801 54.1625C96.7421 54.1449 96.7981 54.1123 96.8441 54.0675C96.8901 54.0228 96.9231 53.9673 96.9421 53.9062C96.9541 53.8104 96.8791 53.686 96.8391 53.603C96.7641 53.4508 96.6711 53.3079 96.5621 53.1769C96.5191 53.108 96.4671 53.0447 96.4091 52.9883C96.3081 52.9049 96.2271 52.96 96.1241 52.9411L96.238 52.9946Z" fill="white"/>
</g>
<g style="mix-blend-mode:soft-light" opacity="0.36">
<path fill-rule="evenodd" clip-rule="evenodd" d="M100.47 55.9042L100.758 55.6946C100.86 55.7753 101.013 55.8029 101.027 55.9526C101.013 56.0951 100.951 56.2287 100.852 56.3321C100.802 56.3832 100.736 56.4161 100.665 56.4254C100.594 56.4347 100.522 56.4199 100.46 56.3835C100.307 56.3013 100.323 56.1237 100.372 55.9716L100.47 55.9042Z" fill="white"/>
</g>
<g style="mix-blend-mode:soft-light" opacity="0.36">
<path fill-rule="evenodd" clip-rule="evenodd" d="M99.2731 72.6495C99.3141 72.7121 99.3751 72.7596 99.4451 72.785C99.5151 72.8105 99.5921 72.8124 99.6641 72.7906C99.7861 72.7621 99.8931 72.6884 99.9641 72.5843C100.034 72.4801 100.062 72.3532 100.043 72.2291C99.9851 71.8698 99.6961 71.3499 99.3171 71.2408C99.0811 71.1719 98.6821 71.3178 98.6921 71.6038C98.6921 71.7649 98.71 71.9255 98.748 72.0822C98.845 72.3129 99.0161 72.5049 99.2341 72.6282L99.2731 72.6495Z" fill="white"/>
</g>
<g style="mix-blend-mode:soft-light" opacity="0.36">
<path fill-rule="evenodd" clip-rule="evenodd" d="M34.187 23.7274C34.227 23.8765 34.229 23.9469 34.343 24.0408C34.461 24.1574 34.6199 24.2235 34.7869 24.2251C35.1749 24.1395 35.523 23.9223 35.77 23.6102C35.87 23.5075 35.945 23.383 35.989 23.2466C36.032 23.1101 36.0439 22.9654 36.0219 22.8237C36.0089 22.658 35.96 22.4971 35.879 22.3518C35.798 22.2065 35.687 22.0801 35.554 21.9811C35.432 21.8696 35.2769 21.7993 35.1129 21.7802C34.9489 21.761 34.783 21.794 34.638 21.8744C34.33 22.0174 34.0539 22.2227 33.8289 22.4774C33.7479 22.5791 33.693 22.6983 33.668 22.8253C33.643 22.9523 33.6479 23.0835 33.6829 23.2082C33.7339 23.4581 33.873 23.8241 34.187 23.7274Z" fill="white"/>
</g>
<g style="mix-blend-mode:soft-light" opacity="0.36">
<path fill-rule="evenodd" clip-rule="evenodd" d="M36.4151 21.9928C36.3301 21.9471 36.2311 21.8939 36.2531 21.7998C36.2911 21.7225 36.3451 21.6537 36.4111 21.5977C36.4771 21.5417 36.5531 21.4996 36.6361 21.4739C36.7661 21.444 36.9021 21.4629 37.0191 21.5272C37.0831 21.5926 37.1211 21.679 37.1251 21.7702C37.1391 21.8363 37.1321 21.9052 37.1051 21.967C37.0771 22.0289 37.0311 22.0805 36.9731 22.1145C36.8891 22.1608 36.7001 22.2886 36.6111 22.204L36.4151 21.9928Z" fill="white"/>
</g>
<g style="mix-blend-mode:soft-light" opacity="0.36">
<path fill-rule="evenodd" clip-rule="evenodd" d="M22.0411 23.2091C22.1571 23.2937 22.2991 23.3341 22.4421 23.3232C22.7031 23.3042 22.9561 23.2259 23.1811 23.0942C23.4881 22.9395 23.7371 22.6904 23.8921 22.3834C23.9271 22.2603 23.926 22.1295 23.889 22.007C23.851 21.8846 23.779 21.7756 23.68 21.6935C23.423 21.5196 23.112 21.4425 22.802 21.476C22.526 21.5138 22.262 21.6172 22.034 21.7777C21.805 21.9382 21.6191 22.151 21.4891 22.3983C21.2411 22.9752 22.0471 23.4347 22.0411 23.2091Z" fill="white"/>
</g>
<g style="mix-blend-mode:soft-light" opacity="0.36">
<path fill-rule="evenodd" clip-rule="evenodd" d="M25.2541 21.8519C25.1691 21.8822 25.0771 21.8884 24.9891 21.8697C24.9961 21.768 24.9221 21.6954 24.9361 21.5896C24.9611 21.4866 25.0251 21.3973 25.1141 21.3394C25.1691 21.2991 25.2341 21.2742 25.3021 21.2672C25.3701 21.2602 25.4381 21.2713 25.5001 21.2994C25.6411 21.3754 25.6471 21.4402 25.6441 21.588C25.6411 21.7358 25.6511 21.7232 25.5391 21.783C25.4711 21.8261 25.3991 21.8619 25.3241 21.8899L25.2541 21.8519Z" fill="white"/>
</g>
</g>
<path fill-rule="evenodd" clip-rule="evenodd" d="M78.4821 73.855C78.9251 74.094 79.1461 74.552 78.9711 74.877C78.7961 75.202 78.2931 75.27 77.8491 75.031C77.4051 74.792 77.1881 74.336 77.3631 74.011C77.5381 73.686 78.0381 73.617 78.4821 73.855Z" fill="url(#paint27_linear_7_339)"/>
<path fill-rule="evenodd" clip-rule="evenodd" d="M78.415 73.98C78.766 74.168 78.9371 74.527 78.7991 74.784C78.6601 75.041 78.2671 75.095 77.9161 74.907C77.5661 74.718 77.3941 74.36 77.5331 74.102C77.6711 73.845 78.068 73.793 78.415 73.98Z" fill="white"/>
<path fill-rule="evenodd" clip-rule="evenodd" d="M89.455 49.4597C89.657 49.5449 89.818 49.706 89.902 49.9083C89.987 50.1106 89.989 50.338 89.908 50.5417C89.782 50.7217 89.592 50.8453 89.376 50.886C89.161 50.9268 88.938 50.8814 88.755 50.7596C88.553 50.6743 88.392 50.5131 88.307 50.3106C88.222 50.1081 88.219 49.8804 88.3 49.6761C88.426 49.4963 88.618 49.3729 88.834 49.3325C89.049 49.2921 89.273 49.3378 89.455 49.4597Z" fill="url(#paint28_linear_7_339)"/>
<path fill-rule="evenodd" clip-rule="evenodd" d="M89.3801 49.5981C89.5401 49.6653 89.666 49.7921 89.733 49.9514C89.8 50.1106 89.802 50.2897 89.738 50.4504C89.639 50.5918 89.488 50.6889 89.319 50.7208C89.149 50.7527 88.9731 50.7169 88.8301 50.621C88.6711 50.5539 88.5441 50.4271 88.4771 50.2678C88.4101 50.1085 88.4091 49.9294 88.4721 49.7688C88.5711 49.6273 88.7221 49.5302 88.8911 49.4983C89.0611 49.4664 89.2371 49.5023 89.3801 49.5981Z" fill="white"/>
<path d="M83.7869 61.6256C84.0289 61.1762 83.8649 60.6176 83.4199 60.3781C82.9749 60.1386 82.418 60.3089 82.176 60.7583C81.934 61.2078 82.099 61.7663 82.544 62.0057C82.988 62.2452 83.5449 62.0751 83.7869 61.6256Z" fill="url(#paint29_linear_7_339)"/>
<path fill-rule="evenodd" clip-rule="evenodd" d="M83.3271 60.5504C83.4951 60.6429 83.6201 60.7981 83.6741 60.9822C83.7281 61.1663 83.7061 61.3642 83.6151 61.5327C83.5251 61.702 83.3711 61.8287 83.1881 61.885C83.0041 61.9414 82.8061 61.9228 82.6361 61.8334C82.4681 61.7409 82.3441 61.5857 82.2901 61.4016C82.2361 61.2175 82.2571 61.0196 82.3491 60.8511C82.4391 60.6818 82.5931 60.5551 82.7761 60.4988C82.9591 60.4424 83.1571 60.461 83.3271 60.5504Z" fill="white"/>
<path style="mix-blend-mode:screen" d="M83.807 55.611C84.502 55.6966 85.173 55.9194 85.781 56.2663C86.389 56.6132 86.922 57.0774 87.349 57.6319C87.777 58.1865 88.09 58.8205 88.27 59.497C88.451 60.1734 88.495 60.879 88.401 61.5727C88.223 62.9812 87.496 64.2627 86.38 65.1393C85.263 66.0159 83.846 66.417 82.435 66.2556C81.74 66.1695 81.07 65.9467 80.462 65.5996C79.854 65.2526 79.321 64.7884 78.894 64.2339C78.466 63.6794 78.153 63.0457 77.973 62.3694C77.792 61.6932 77.747 60.9876 77.841 60.294C78.019 58.8854 78.745 57.604 79.862 56.7274C80.979 55.8507 82.396 55.4496 83.807 55.611Z" fill="url(#paint30_radial_7_339)"/>
<path style="mix-blend-mode:screen" d="M52.391 15.1687C52.945 15.2371 53.481 15.4148 53.966 15.6916C54.451 15.9683 54.877 16.3386 55.218 16.7809C55.559 17.2233 55.809 17.7289 55.954 18.2686C56.098 18.8082 56.134 19.3712 56.059 19.9248C55.916 21.049 55.336 22.0714 54.444 22.7708C53.552 23.4703 52.421 23.7904 51.295 23.662C50.741 23.593 50.206 23.4148 49.721 23.1377C49.235 22.8605 48.81 22.49 48.469 22.0474C48.128 21.6049 47.878 21.0991 47.734 20.5594C47.59 20.0196 47.554 19.4567 47.628 18.903C47.772 17.7793 48.352 16.7573 49.243 16.0584C50.135 15.3594 51.265 15.0398 52.391 15.1687Z" fill="url(#paint31_radial_7_339)"/>
<path style="mix-blend-mode:screen" d="M16.2211 21.6977C16.7751 21.7661 17.3111 21.9438 17.7961 22.2205C18.2811 22.4973 18.707 22.8675 19.048 23.3099C19.389 23.7522 19.6391 24.2579 19.7841 24.7976C19.9281 25.3372 19.964 25.9002 19.889 26.4538C19.748 27.5786 19.1681 28.6021 18.2761 29.3018C17.3841 30.0016 16.2521 30.3211 15.1251 30.1909C14.5711 30.1225 14.036 29.9448 13.55 29.6681C13.065 29.3913 12.64 29.0211 12.298 28.5787C11.957 28.1363 11.707 27.6307 11.563 27.091C11.418 26.5514 11.382 25.9884 11.457 25.4348C11.6 24.3103 12.18 23.2874 13.071 22.5878C13.963 21.8882 15.0951 21.5684 16.2211 21.6977Z" fill="url(#paint32_radial_7_339)"/>
<path style="mix-blend-mode:screen" d="M30.4781 56.7761C30.7641 56.8114 31.0411 56.9032 31.2921 57.0461C31.5421 57.1891 31.7621 57.3803 31.9391 57.6088C32.1151 57.8373 32.2441 58.0984 32.3191 58.3772C32.3941 58.656 32.4121 58.9468 32.3741 59.2328C32.3001 59.8141 32.0001 60.3429 31.5391 60.7047C31.0791 61.0666 30.4941 61.2322 29.9121 61.1657C29.6251 61.1302 29.3481 61.0382 29.0981 60.895C28.8471 60.7518 28.6271 60.5603 28.4511 60.3315C28.2751 60.1027 28.1461 59.8413 28.0711 59.5623C27.9971 59.2833 27.9781 58.9923 28.0171 58.7061C28.0921 58.1257 28.3911 57.5978 28.8521 57.2366C29.3121 56.8754 29.8961 56.71 30.4781 56.7761Z" fill="url(#paint33_radial_7_339)"/>
<path style="mix-blend-mode:screen" d="M89.1701 48.4387C89.4391 48.4709 89.6991 48.5563 89.9351 48.6898C90.1701 48.8234 90.3772 49.0023 90.5432 49.2164C90.7092 49.4305 90.8301 49.6755 90.9011 49.937C90.9711 50.1985 90.9891 50.4714 90.9531 50.7398C90.8851 51.2834 90.6052 51.778 90.1742 52.1159C89.7422 52.4539 89.1951 52.6077 88.6511 52.544C88.3831 52.5112 88.1251 52.4255 87.8911 52.2921C87.6561 52.1586 87.4512 51.9799 87.2862 51.7665C87.1212 51.553 87.0012 51.3089 86.9312 51.0484C86.8612 50.788 86.8441 50.5162 86.8801 50.249C86.9471 49.7069 87.2251 49.2131 87.6541 48.8743C88.0821 48.5356 88.6271 48.3791 89.1701 48.4387Z" fill="url(#paint34_radial_7_339)"/>
<path style="mix-blend-mode:screen" d="M78.2281 72.7708C78.4961 72.8038 78.754 72.8897 78.988 73.023C79.223 73.157 79.4281 73.336 79.5931 73.55C79.7581 73.764 79.878 74.008 79.948 74.269C80.017 74.529 80.034 74.801 79.998 75.069C79.929 75.612 79.649 76.106 79.219 76.444C78.789 76.782 78.242 76.936 77.699 76.874C77.431 76.841 77.1721 76.755 76.9371 76.622C76.7031 76.488 76.497 76.309 76.332 76.095C76.167 75.881 76.046 75.637 75.977 75.376C75.907 75.115 75.8901 74.843 75.9261 74.575C75.9951 74.032 76.275 73.538 76.706 73.2C77.137 72.8622 77.6841 72.708 78.2281 72.7708Z" fill="url(#paint35_radial_7_339)"/>
</g>
<defs>
<linearGradient id="paint0_linear_7_339" x1="149.171" y1="94.0121" x2="109.746" y2="72.786" gradientUnits="userSpaceOnUse">
<stop stop-opacity="0"/>
<stop offset="1" stop-color="#106D90"/>
</linearGradient>
<linearGradient id="paint1_linear_7_339" x1="123.653" y1="60.4251" x2="97.2571" y2="46.2137" gradientUnits="userSpaceOnUse">
<stop stop-color="#A43440"/>
<stop offset="1" stop-color="#C73634"/>
</linearGradient>
<linearGradient id="paint2_linear_7_339" x1="104.15" y1="96.649" x2="77.754" y2="82.437" gradientUnits="userSpaceOnUse">
<stop stop-color="#A43440"/>
<stop offset="1" stop-color="#C73634"/>
</linearGradient>
<radialGradient id="paint3_radial_7_339" cx="0" cy="0" r="1" gradientUnits="userSpaceOnUse" gradientTransform="translate(43.3241 34.5728) rotate(-61.702) scale(34.063 61.4731)">
<stop stop-color="#F4BAB3"/>
<stop offset="0.77" stop-color="#8D6FC7"/>
<stop offset="0.96" stop-color="#B695E5"/>
</radialGradient>
<radialGradient id="paint4_radial_7_339" cx="0" cy="0" r="1" gradientUnits="userSpaceOnUse" gradientTransform="translate(14.8399 25.3714) rotate(-61.702) scale(9.15601 8.1686)">
<stop offset="0.02" stop-color="#AB5E75"/>
<stop offset="0.25" stop-color="#9F577B"/>
<stop offset="0.67" stop-color="#7F458C"/>
<stop offset="0.99" stop-color="#61349C"/>
</radialGradient>
<linearGradient id="paint5_linear_7_339" x1="16.6361" y1="26.3353" x2="13.3381" y2="24.5598" gradientUnits="userSpaceOnUse">
<stop stop-color="#FFFF18"/>
<stop offset="1" stop-color="#FF7400"/>
</linearGradient>
<radialGradient id="paint6_radial_7_339" cx="0" cy="0" r="1" gradientUnits="userSpaceOnUse" gradientTransform="translate(86.0611 64.0251) rotate(-61.702) scale(16.1744 29.336)">
<stop offset="0.02" stop-color="#8881BC"/>
<stop offset="0.29" stop-color="#8375B7"/>
<stop offset="0.77" stop-color="#7555AA"/>
<stop offset="0.99" stop-color="#6D43A3"/>
</radialGradient>
<radialGradient id="paint7_radial_7_339" cx="0" cy="0" r="1" gradientUnits="userSpaceOnUse" gradientTransform="translate(46.3901 42.5774) rotate(-61.702) scale(17.199 17.0304)">
<stop offset="0.02" stop-color="#8881BC"/>
<stop offset="0.29" stop-color="#8375B7"/>
<stop offset="0.77" stop-color="#7555AA"/>
<stop offset="0.99" stop-color="#6D43A3"/>
</radialGradient>
<radialGradient id="paint8_radial_7_339" cx="0" cy="0" r="1" gradientUnits="userSpaceOnUse" gradientTransform="translate(31.7141 35.4888) rotate(-61.702) scale(21.3977 35.3445)">
<stop offset="0.02" stop-color="#725EB0"/>
<stop offset="0.38" stop-color="#6D52AA"/>
<stop offset="0.99" stop-color="#61349C"/>
</radialGradient>
<linearGradient id="paint9_linear_7_339" x1="55.1919" y1="46.8752" x2="32.1339" y2="34.4605" gradientUnits="userSpaceOnUse">
<stop stop-color="#FFFF29"/>
<stop offset="1" stop-color="#FF7E59"/>
</linearGradient>
<radialGradient id="paint10_radial_7_339" cx="0" cy="0" r="1" gradientUnits="userSpaceOnUse" gradientTransform="translate(107.83 75.43) rotate(-61.702) scale(6.35389 11.5242)">
<stop offset="0.02" stop-color="#725EB0"/>
<stop offset="0.38" stop-color="#6D52AA"/>
<stop offset="0.99" stop-color="#61349C"/>
</radialGradient>
<radialGradient id="paint11_radial_7_339" cx="0" cy="0" r="1" gradientUnits="userSpaceOnUse" gradientTransform="translate(27.0111 31.9801) rotate(-61.702) scale(11.7094 11.5945)">
<stop offset="0.02" stop-color="#8881BC"/>
<stop offset="0.29" stop-color="#8375B7"/>
<stop offset="0.77" stop-color="#7555AA"/>
<stop offset="0.99" stop-color="#6D43A3"/>
</radialGradient>
<linearGradient id="paint12_linear_7_339" x1="75.113" y1="58.6106" x2="73.723" y2="57.862" gradientUnits="userSpaceOnUse">
<stop stop-color="#8DC7FF"/>
<stop offset="0.32" stop-color="#5C4D86"/>
</linearGradient>
<radialGradient id="paint13_radial_7_339" cx="0" cy="0" r="1" gradientUnits="userSpaceOnUse" gradientTransform="translate(74.8529 58.627) rotate(-61.7016) scale(0.631791 0.625603)">
<stop offset="0.02" stop-color="#8881BC"/>
<stop offset="0.29" stop-color="#8375B7"/>
<stop offset="0.77" stop-color="#7555AA"/>
<stop offset="1" stop-color="#6D43A3"/>
</radialGradient>
<linearGradient id="paint14_linear_7_339" x1="71.6829" y1="56.7635" x2="70.2899" y2="56.0134" gradientUnits="userSpaceOnUse">
<stop stop-color="#8DC7FF"/>
<stop offset="0.32" stop-color="#5C4D86"/>
</linearGradient>
<radialGradient id="paint15_radial_7_339" cx="0" cy="0" r="1" gradientUnits="userSpaceOnUse" gradientTransform="translate(71.4091 56.7723) rotate(-61.7024) scale(0.631786 0.625585)">
<stop offset="0.02" stop-color="#8881BC"/>
<stop offset="0.29" stop-color="#8375B7"/>
<stop offset="0.77" stop-color="#7555AA"/>
<stop offset="1" stop-color="#6D43A3"/>
</radialGradient>
<radialGradient id="paint16_radial_7_339" cx="0" cy="0" r="1" gradientUnits="userSpaceOnUse" gradientTransform="translate(41.6951 55.7423) rotate(-61.7019) scale(0.631789 0.625596)">
<stop stop-color="#F4BAB3"/>
<stop offset="1" stop-color="#8D6FC7"/>
</radialGradient>
<radialGradient id="paint17_radial_7_339" cx="0" cy="0" r="1" gradientUnits="userSpaceOnUse" gradientTransform="translate(32.4831 49.1876) rotate(-61.7023) scale(0.631787 0.62559)">
<stop stop-color="#F4BAB3"/>
<stop offset="1" stop-color="#8D6FC7"/>
</radialGradient>
<radialGradient id="paint18_radial_7_339" cx="0" cy="0" r="1" gradientUnits="userSpaceOnUse" gradientTransform="translate(53.047 53.3443) rotate(-61.7025) scale(0.631786 0.625587)">
<stop stop-color="#F4BAB3"/>
<stop offset="1" stop-color="#8D6FC7"/>
</radialGradient>
<radialGradient id="paint19_radial_7_339" cx="0" cy="0" r="1" gradientUnits="userSpaceOnUse" gradientTransform="translate(59.7662 42.8823) rotate(-61.7024) scale(0.631786 0.625585)">
<stop stop-color="#F4BAB3"/>
<stop offset="1" stop-color="#8D6FC7"/>
</radialGradient>
<radialGradient id="paint20_radial_7_339" cx="0" cy="0" r="1" gradientUnits="userSpaceOnUse" gradientTransform="translate(57.2319 31.9855) rotate(-61.7013) scale(0.631793 0.62561)">
<stop stop-color="#F4BAB3"/>
<stop offset="1" stop-color="#8D6FC7"/>
</radialGradient>
<radialGradient id="paint21_radial_7_339" cx="0" cy="0" r="1" gradientUnits="userSpaceOnUse" gradientTransform="translate(44.2532 26.4585) rotate(-61.7019) scale(0.631788 0.625596)">
<stop stop-color="#F4BAB3"/>
<stop offset="1" stop-color="#8D6FC7"/>
</radialGradient>
<radialGradient id="paint22_radial_7_339" cx="0" cy="0" r="1" gradientUnits="userSpaceOnUse" gradientTransform="translate(34.886 28.58) rotate(-61.7019) scale(0.631788 0.625596)">
<stop stop-color="#F4BAB3"/>
<stop offset="1" stop-color="#8D6FC7"/>
</radialGradient>
<radialGradient id="paint23_radial_7_339" cx="0" cy="0" r="1" gradientUnits="userSpaceOnUse" gradientTransform="translate(28.8501 37.391) rotate(-61.7016) scale(0.631791 0.625602)">
<stop stop-color="#F4BAB3"/>
<stop offset="1" stop-color="#8D6FC7"/>
</radialGradient>
<linearGradient id="paint24_linear_7_339" x1="116.732" y1="73.28" x2="87.403" y2="57.4889" gradientUnits="userSpaceOnUse">
<stop stop-color="#A43411"/>
<stop offset="1" stop-color="#C73634"/>
</linearGradient>
<linearGradient id="paint25_linear_7_339" x1="51.9221" y1="20.4057" x2="52.8681" y2="18.648" gradientUnits="userSpaceOnUse">
<stop stop-color="#FFFF18"/>
<stop offset="1" stop-color="#FF7400"/>
</linearGradient>
<linearGradient id="paint26_linear_7_339" x1="30.023" y1="59.943" x2="30.913" y2="58.2899" gradientUnits="userSpaceOnUse">
<stop stop-color="#FFFF18"/>
<stop offset="1" stop-color="#FF7400"/>
</linearGradient>
<linearGradient id="paint27_linear_7_339" x1="78.9711" y1="74.877" x2="77.3631" y2="74.011" gradientUnits="userSpaceOnUse">
<stop stop-color="#8DC7FF"/>
<stop offset="0.32" stop-color="#5C4D86"/>
</linearGradient>
<linearGradient id="paint28_linear_7_339" x1="89.913" y1="50.5448" x2="88.306" y2="49.6791" gradientUnits="userSpaceOnUse">
<stop stop-color="#8DC7FF"/>
<stop offset="0.32" stop-color="#5C4D86"/>
</linearGradient>
<linearGradient id="paint29_linear_7_339" x1="83.7869" y1="61.6255" x2="82.1789" y2="60.7599" gradientUnits="userSpaceOnUse">
<stop stop-color="#8DC7FF"/>
<stop offset="0.32" stop-color="#5C4D86"/>
</linearGradient>
<radialGradient id="paint30_radial_7_339" cx="0" cy="0" r="1" gradientUnits="userSpaceOnUse" gradientTransform="translate(83.135 61.0346) rotate(-82.7944) scale(5.38395 5.317)">
<stop stop-color="#003CEE"/>
<stop offset="0.06" stop-color="#0036D6"/>
<stop offset="0.2" stop-color="#00289E"/>
<stop offset="0.34" stop-color="#001C6D"/>
<stop offset="0.48" stop-color="#001246"/>
<stop offset="0.62" stop-color="#000A27"/>
<stop offset="0.75" stop-color="#000412"/>
<stop offset="0.88" stop-color="#000104"/>
<stop offset="1"/>
</radialGradient>
<radialGradient id="paint31_radial_7_339" cx="0" cy="0" r="1" gradientUnits="userSpaceOnUse" gradientTransform="translate(51.812 19.3761) rotate(-82.7943) scale(4.29561 4.24219)">
<stop stop-color="#FF9A00"/>
<stop offset="0.09" stop-color="#D68100"/>
<stop offset="0.23" stop-color="#9E5F00"/>
<stop offset="0.36" stop-color="#6E4200"/>
<stop offset="0.5" stop-color="#462A00"/>
<stop offset="0.63" stop-color="#271800"/>
<stop offset="0.76" stop-color="#120B00"/>
<stop offset="0.89" stop-color="#040300"/>
<stop offset="1"/>
</radialGradient>
<radialGradient id="paint32_radial_7_339" cx="0" cy="0" r="1" gradientUnits="userSpaceOnUse" gradientTransform="translate(15.693 25.9221) rotate(-82.7943) scale(4.29561 4.24218)">
<stop stop-color="#FF9A00"/>
<stop offset="0.09" stop-color="#D68100"/>
<stop offset="0.23" stop-color="#9E5F00"/>
<stop offset="0.36" stop-color="#6E4200"/>
<stop offset="0.5" stop-color="#462A00"/>
<stop offset="0.63" stop-color="#271800"/>
<stop offset="0.76" stop-color="#120B00"/>
<stop offset="0.89" stop-color="#040300"/>
<stop offset="1"/>
</radialGradient>
<radialGradient id="paint33_radial_7_339" cx="0" cy="0" r="1" gradientUnits="userSpaceOnUse" gradientTransform="translate(30.2571 59.0537) rotate(-82.7944) scale(2.22003 2.19243)">
<stop stop-color="#FF9A00"/>
<stop offset="0.09" stop-color="#D68100"/>
<stop offset="0.23" stop-color="#9E5F00"/>
<stop offset="0.36" stop-color="#6E4200"/>
<stop offset="0.5" stop-color="#462A00"/>
<stop offset="0.63" stop-color="#271800"/>
<stop offset="0.76" stop-color="#120B00"/>
<stop offset="0.89" stop-color="#040300"/>
<stop offset="1"/>
</radialGradient>
<radialGradient id="paint34_radial_7_339" cx="0" cy="0" r="1" gradientUnits="userSpaceOnUse" gradientTransform="translate(88.8892 50.5569) rotate(-82.7944) scale(2.07556 2.04976)">
<stop stop-color="#003CEE"/>
<stop offset="0.06" stop-color="#0036D6"/>
<stop offset="0.2" stop-color="#00289E"/>
<stop offset="0.34" stop-color="#001C6D"/>
<stop offset="0.48" stop-color="#001246"/>
<stop offset="0.62" stop-color="#000A27"/>
<stop offset="0.75" stop-color="#000412"/>
<stop offset="0.88" stop-color="#000104"/>
<stop offset="1"/>
</radialGradient>
<radialGradient id="paint35_radial_7_339" cx="0" cy="0" r="1" gradientUnits="userSpaceOnUse" gradientTransform="translate(78.009 74.965) rotate(-82.7945) scale(2.07556 2.04974)">
<stop stop-color="#003CEE"/>
<stop offset="0.06" stop-color="#0036D6"/>
<stop offset="0.2" stop-color="#00289E"/>
<stop offset="0.34" stop-color="#001C6D"/>
<stop offset="0.48" stop-color="#001246"/>
<stop offset="0.62" stop-color="#000A27"/>
<stop offset="0.75" stop-color="#000412"/>
<stop offset="0.88" stop-color="#000104"/>
<stop offset="1"/>
</radialGradient>
</defs>
</svg>
