<svg width="30" height="22" viewBox="0 0 15 12" fill="none" xmlns="http://www.w3.org/2000/svg">
<mask id="mask0_7_340" style="mask-type:luminance" maskUnits="userSpaceOnUse" x="0" y="0" width="15" height="12">
<path d="M2.32217 1.90911e-05L0 4.31311L12.6778 11.1389L15 6.82576L2.32217 1.90911e-05Z" fill="white"/>
</mask>
<g mask="url(#mask0_7_340)">
<path style="mix-blend-mode:screen" d="M9.70874 7.87859L13.428 9.74474L14.1111 8.1593L10.6123 6.23596C10.6123 6.23596 9.87037 7.38912 9.70874 7.87859Z" fill="url(#paint0_linear_7_340)"/>
<path fill-rule="evenodd" clip-rule="evenodd" d="M9.08545 4.62221L9.31153 3.92566C9.31153 3.92566 10.5325 4.45176 11.4247 5.91573L11.3923 5.97574L9.67193 4.98741L9.59943 5.112L9.08545 4.62221Z" fill="url(#paint1_linear_7_340)"/>
<path fill-rule="evenodd" clip-rule="evenodd" d="M7.52883 7.52039L7.05908 8.10789C7.05908 8.10789 8.17058 8.83719 9.8838 8.77639L9.91615 8.71634L8.14467 7.82606L8.20874 7.69689L7.52883 7.52039Z" fill="url(#paint2_linear_7_340)"/>
<path fill-rule="evenodd" clip-rule="evenodd" d="M1.53064 2.42639C1.08849 3.24762 2.35207 5.58658 4.22888 6.46306C6.1056 7.33952 9.23449 7.93076 9.23449 7.93076L9.81124 6.88427L10.3673 5.8268C10.3673 5.8268 8.14956 3.54009 6.38621 2.45605C4.62286 1.372 1.96979 1.61072 1.53064 2.42639Z" fill="url(#paint3_radial_7_340)"/>
<path fill-rule="evenodd" clip-rule="evenodd" d="M9.23486 7.93137C9.23486 7.93137 9.77382 6.67707 10.3677 5.82739C10.3677 5.82739 9.85024 7.06456 9.23486 7.93137Z" fill="#31165F"/>
<path fill-rule="evenodd" clip-rule="evenodd" d="M1.76033 3.97326C1.76033 3.97326 2.02205 2.61403 3.07751 1.75415C3.07751 1.75415 1.85658 1.83352 1.53051 2.42644C1.23709 2.95991 1.76033 3.97326 1.76033 3.97326Z" fill="url(#paint4_radial_7_340)"/>
<path d="M3.08804 1.76721C2.09636 2.55919 1.78068 3.96124 1.77684 3.97657L1.74438 3.96968C1.74719 3.95553 2.06615 2.54055 3.06765 1.74121L3.08804 1.76721Z" fill="#53345F"/>
<path fill-rule="evenodd" clip-rule="evenodd" d="M1.44607 2.73747L1.80787 2.13892C1.80787 2.13892 1.42016 2.33214 1.44607 2.73747Z" fill="#53345F"/>
<path fill-rule="evenodd" clip-rule="evenodd" d="M1.46292 2.63612C1.50632 2.51188 1.5659 2.39392 1.64026 2.28529C1.64026 2.28529 1.31466 2.19728 1.24778 2.29733C1.181 2.39738 1.46292 2.63612 1.46292 2.63612Z" fill="url(#paint5_linear_7_340)"/>
<path style="mix-blend-mode:multiply" opacity="0.5" fill-rule="evenodd" clip-rule="evenodd" d="M7.20581 7.4665C7.20581 7.4665 7.58604 5.3818 8.71409 4.25549C9.38007 4.83975 10.3676 5.82766 10.3676 5.82766C10.3676 5.82766 9.82296 6.57151 9.2349 7.93156C9.23509 7.93138 8.1814 7.78546 7.20581 7.4665Z" fill="url(#paint6_radial_7_340)"/>
<path style="mix-blend-mode:multiply" opacity="0.5" fill-rule="evenodd" clip-rule="evenodd" d="M2.80942 3.20355C2.46802 3.97437 3.05646 4.97304 3.79979 5.41686C4.54303 5.86068 5.38757 5.40715 5.77089 4.64457C6.1542 3.88201 5.9791 2.98382 5.09818 2.62206C4.30255 2.29392 3.18881 2.34685 2.80942 3.20355Z" fill="url(#paint7_radial_7_340)"/>
<path fill-rule="evenodd" clip-rule="evenodd" d="M2.68809 3.13826C2.34668 3.90909 2.93512 4.90776 3.67836 5.35157C4.4217 5.79539 5.26623 5.34186 5.64983 4.57944C6.03333 3.81701 5.85795 2.91868 4.97683 2.55678C4.18149 2.22877 3.06775 2.28171 2.68809 3.13826Z" fill="#31165F"/>
<path fill-rule="evenodd" clip-rule="evenodd" d="M2.60361 3.09273C2.26221 3.86355 2.85065 4.86222 3.59389 5.30604C4.33713 5.74987 5.18176 5.29632 5.56526 4.5339C5.94886 3.77148 5.77347 2.87315 4.89236 2.51125C4.09692 2.18324 2.98328 2.23617 2.60361 3.09273Z" fill="url(#paint8_radial_7_340)"/>
<path fill-rule="evenodd" clip-rule="evenodd" d="M2.9016 3.18976C2.58424 3.87535 3.09083 4.57767 3.67197 4.92498C4.25312 5.2723 4.9132 4.91378 5.21458 4.31474C5.51595 3.71571 5.38052 3.01239 4.69321 2.72929C4.06988 2.47244 3.23188 2.473 2.9016 3.18976Z" fill="#A6345F"/>
<path fill-rule="evenodd" clip-rule="evenodd" d="M5.33407 3.57751C5.36475 3.82931 5.31827 4.0845 5.2006 4.30923C4.91382 4.87929 4.22192 5.25176 3.66969 4.92171C3.48065 4.80903 3.31453 4.66175 3.18002 4.48756C2.91531 4.14392 2.79709 3.69806 2.99997 3.23895C3.29769 2.55921 4.11314 2.55676 4.70486 2.8003C5.08461 2.95872 5.28675 3.25065 5.33407 3.57751Z" fill="url(#paint9_linear_7_340)"/>
<path d="M5.65101 4.57764L5.64307 4.59244L7.75811 5.73118L7.76606 5.71638L5.65101 4.57764Z" fill="#53345F"/>
<path d="M7.21281 7.46753L7.19653 7.46417C7.70837 5.12039 8.69742 4.25783 8.70715 4.24939L8.718 4.26207C8.70902 4.2712 7.72455 5.13082 7.21281 7.46753Z" fill="#53345F"/>
<path d="M6.42272 7.24774L6.40617 7.24933C6.40523 7.241 6.34069 6.39584 6.88087 5.25L6.89537 5.25783C6.35613 6.39873 6.42207 7.2395 6.42272 7.24774Z" fill="#53345F"/>
<path fill-rule="evenodd" clip-rule="evenodd" d="M9.4152 6.29814L8.48657 5.83635L8.55934 5.54993L9.52174 6.10016L9.4152 6.29814Z" fill="#31165F"/>
<path fill-rule="evenodd" clip-rule="evenodd" d="M9.34692 7.7674C9.34692 7.7674 9.75193 6.80683 10.3129 5.95374L10.692 6.22913L9.72921 7.90976L9.34692 7.7674Z" fill="url(#paint10_radial_7_340)"/>
<path opacity="0.5" fill-rule="evenodd" clip-rule="evenodd" d="M9.54036 7.83877C9.55355 7.55666 9.63249 7.28148 9.77083 7.0352C10.0002 6.62953 10.6046 6.16471 10.6046 6.16471L10.3129 5.95374C10.3129 5.95374 9.6932 6.87918 9.34692 7.7674L9.54036 7.83877Z" fill="#31165F"/>
<path d="M3.46948 2.96802C3.65207 2.91199 3.8426 2.88627 4.0335 2.89188L4.02864 2.70517C4.02864 2.70517 3.70884 2.67415 3.50671 2.8292L3.46948 2.96802Z" fill="white"/>
<path d="M3.96631 4.81652L4.23513 4.8092L4.24037 4.96409L4.02318 4.95658L3.96631 4.81652Z" fill="white"/>
<path style="mix-blend-mode:multiply" opacity="0.5" fill-rule="evenodd" clip-rule="evenodd" d="M2.00201 4.41009C2.00201 4.41009 2.03475 2.92763 3.44191 1.72998L3.07768 1.75415C3.07768 1.75415 2.20124 2.41074 1.7605 3.97327L2.00201 4.41009Z" fill="url(#paint11_radial_7_340)"/>
<path fill-rule="evenodd" clip-rule="evenodd" d="M6.9962 5.3814C7.00481 5.38606 7.01238 5.39237 7.01846 5.39997C7.02464 5.40757 7.02922 5.4163 7.03194 5.42566C7.03465 5.43504 7.03558 5.44486 7.03455 5.45456C7.03343 5.46427 7.03053 5.47367 7.02576 5.48223C7.0165 5.4996 7.00079 5.5126 6.98189 5.51838C6.96309 5.52415 6.9428 5.52222 6.9253 5.51303C6.90809 5.50355 6.89528 5.48762 6.88976 5.46873C6.88415 5.44983 6.88639 5.42951 6.89575 5.4122C6.90033 5.40357 6.9065 5.39593 6.91408 5.3897C6.92156 5.38348 6.93026 5.3788 6.93962 5.37594C6.94888 5.37308 6.9587 5.37209 6.96842 5.37302C6.97815 5.37396 6.9876 5.37681 6.9962 5.3814Z" fill="url(#paint12_linear_7_340)"/>
<path fill-rule="evenodd" clip-rule="evenodd" d="M6.98923 5.39465C7.00279 5.40246 7.01271 5.41523 7.01701 5.43025C7.02122 5.44528 7.01945 5.46137 7.01206 5.47512C7.00467 5.48887 6.99222 5.4992 6.97735 5.50392C6.96239 5.50864 6.9463 5.50736 6.93236 5.50038C6.9188 5.49257 6.90888 5.47979 6.90458 5.46477C6.90037 5.44974 6.90215 5.43365 6.90954 5.41991C6.91693 5.40615 6.92937 5.39582 6.94424 5.39111C6.95911 5.38639 6.9753 5.38766 6.98923 5.39465Z" fill="url(#paint13_radial_7_340)"/>
<path fill-rule="evenodd" clip-rule="evenodd" d="M6.67506 5.20855C6.69218 5.21814 6.7049 5.23412 6.71032 5.25299C6.71565 5.27188 6.7134 5.29214 6.70396 5.30935C6.6946 5.32672 6.6788 5.33968 6.65991 5.34542C6.64111 5.35117 6.62071 5.34922 6.60322 5.34002C6.58629 5.33041 6.57367 5.3145 6.56833 5.29572C6.56291 5.27694 6.56515 5.25679 6.5745 5.23963C6.57899 5.23094 6.58517 5.22326 6.59275 5.21699C6.60023 5.21073 6.60893 5.20602 6.61828 5.20313C6.62764 5.20025 6.63745 5.19924 6.64718 5.20016C6.657 5.2011 6.66645 5.20394 6.67506 5.20855Z" fill="url(#paint14_linear_7_340)"/>
<path fill-rule="evenodd" clip-rule="evenodd" d="M6.66814 5.22168C6.68171 5.22949 6.69162 5.24226 6.69583 5.25728C6.70013 5.27231 6.69835 5.2884 6.69096 5.30214C6.68357 5.3159 6.67113 5.32623 6.65617 5.33094C6.64129 5.33566 6.62521 5.33439 6.61118 5.3274C6.60435 5.32369 6.59836 5.31863 6.5935 5.31256C6.58863 5.30648 6.58508 5.29949 6.58302 5.292C6.58087 5.28451 6.58031 5.27667 6.58125 5.26896C6.58228 5.26125 6.5848 5.25381 6.58863 5.24707C6.59209 5.24012 6.59696 5.23393 6.60286 5.22886C6.60875 5.2238 6.61567 5.21997 6.62306 5.21761C6.63045 5.21524 6.63831 5.21438 6.64598 5.21508C6.65374 5.21578 6.66132 5.21802 6.66814 5.22168Z" fill="url(#paint15_radial_7_340)"/>
<path d="M3.93329 5.2154C3.95284 5.17905 3.93956 5.13391 3.90373 5.11458C3.86782 5.09525 3.82282 5.10904 3.80327 5.14539C3.78363 5.18174 3.79692 5.22688 3.83283 5.24621C3.86875 5.26555 3.91374 5.25175 3.93329 5.2154Z" fill="#31165F"/>
<path fill-rule="evenodd" clip-rule="evenodd" d="M3.89652 5.12744C3.91008 5.13525 3.91999 5.14802 3.9243 5.16305C3.92851 5.17807 3.92672 5.19416 3.91934 5.20791C3.91195 5.22166 3.89951 5.23199 3.88464 5.23671C3.86967 5.24142 3.85358 5.24015 3.83964 5.23316C3.82617 5.22531 3.81626 5.21255 3.81205 5.19755C3.80784 5.18257 3.80962 5.16654 3.81701 5.15283C3.82056 5.14587 3.82534 5.13968 3.83123 5.13462C3.83712 5.12956 3.84404 5.12573 3.85143 5.12337C3.85882 5.121 3.86668 5.12014 3.87435 5.12084C3.88211 5.12154 3.88969 5.12378 3.89652 5.12744Z" fill="url(#paint16_radial_7_340)"/>
<path fill-rule="evenodd" clip-rule="evenodd" d="M3.04488 4.50312C3.06219 4.51259 3.075 4.52852 3.08052 4.54742C3.08613 4.56632 3.08389 4.58664 3.07454 4.60394C3.06995 4.61258 3.06368 4.62025 3.0562 4.62649C3.04872 4.63273 3.04002 4.63743 3.03067 4.64032C3.02131 4.6432 3.01149 4.64422 3.00176 4.64331C2.99204 4.64239 2.98259 4.63958 2.97389 4.63501C2.96538 4.63031 2.9578 4.62397 2.95163 4.61634C2.94555 4.60871 2.94096 4.59996 2.93825 4.59057C2.93554 4.58118 2.9347 4.57134 2.93573 4.56163C2.93676 4.55191 2.93975 4.5425 2.94452 4.53393C2.95378 4.51655 2.9695 4.50355 2.9883 4.49778C3.00719 4.49201 3.02749 4.49392 3.04488 4.50312Z" fill="#31165F"/>
<path fill-rule="evenodd" clip-rule="evenodd" d="M3.03739 4.51709C3.05086 4.5249 3.06087 4.53768 3.06508 4.5527C3.06938 4.56772 3.06761 4.58381 3.06022 4.59756C3.05283 4.61131 3.04029 4.62164 3.02542 4.62636C3.01055 4.63107 2.99436 4.6298 2.98043 4.62281C2.96696 4.615 2.95695 4.60223 2.95274 4.5872C2.94844 4.57218 2.95022 4.55608 2.95761 4.54234C2.965 4.52858 2.97753 4.51826 2.9924 4.51354C3.00728 4.50883 3.02336 4.5101 3.03739 4.51709Z" fill="url(#paint17_radial_7_340)"/>
<path fill-rule="evenodd" clip-rule="evenodd" d="M4.96256 4.88994C4.97117 4.89461 4.97865 4.90092 4.98482 4.90851C4.991 4.91611 4.99549 4.92484 4.99829 4.93421C5.001 4.94358 5.00194 4.9534 5.00082 4.96311C4.99979 4.97281 4.9968 4.98221 4.99212 4.99077C4.98286 5.00815 4.96705 5.02115 4.94825 5.02692C4.92945 5.03269 4.90906 5.03077 4.89166 5.02158C4.87445 5.0121 4.86164 4.99617 4.85602 4.97728C4.8505 4.95837 4.85266 4.93806 4.8621 4.92075C4.86669 4.91212 4.87286 4.90447 4.88034 4.89825C4.88792 4.89203 4.89662 4.88734 4.90588 4.88448C4.91523 4.88162 4.92505 4.88063 4.93478 4.88157C4.94451 4.88251 4.95396 4.88535 4.96256 4.88994Z" fill="#31165F"/>
<path fill-rule="evenodd" clip-rule="evenodd" d="M4.95507 4.90392C4.96863 4.91174 4.97855 4.92451 4.98285 4.93953C4.98706 4.95456 4.98529 4.97065 4.9779 4.9844C4.97051 4.99815 4.95807 5.00848 4.9432 5.01319C4.92823 5.01792 4.91214 5.01664 4.8982 5.00966C4.88464 5.00184 4.87473 4.98907 4.87042 4.97405C4.86621 4.95903 4.8679 4.94293 4.87538 4.92918C4.88277 4.91543 4.89521 4.9051 4.91008 4.90039C4.92496 4.89567 4.94113 4.89694 4.95507 4.90392Z" fill="url(#paint18_radial_7_340)"/>
<path fill-rule="evenodd" clip-rule="evenodd" d="M5.59001 3.91229C5.59861 3.91695 5.60618 3.92327 5.61236 3.93087C5.61844 3.93848 5.62302 3.94721 5.62583 3.95659C5.62864 3.96596 5.62947 3.97579 5.62844 3.98551C5.62742 3.99523 5.62452 4.00466 5.61984 4.01325C5.61049 4.03061 5.59468 4.04357 5.57578 4.04933C5.55689 4.05507 5.5366 4.05312 5.51911 4.04391C5.5019 4.03444 5.48908 4.01851 5.48346 3.99961C5.47795 3.98072 5.4801 3.96039 5.48954 3.94309C5.49413 3.93445 5.5003 3.92681 5.50788 3.92058C5.51536 3.91436 5.52406 3.90969 5.53341 3.90682C5.54267 3.90396 5.5525 3.90297 5.56223 3.90391C5.57195 3.90484 5.5814 3.90769 5.59001 3.91229Z" fill="#31165F"/>
<path fill-rule="evenodd" clip-rule="evenodd" d="M5.58245 3.92639C5.59601 3.9342 5.60592 3.94697 5.61013 3.96199C5.61444 3.97702 5.61266 3.99311 5.60527 4.00686C5.59788 4.02061 5.58544 4.03094 5.57047 4.03565C5.5556 4.04037 5.53952 4.0391 5.52549 4.03212C5.51866 4.02839 5.51267 4.02335 5.5078 4.01726C5.50303 4.01118 5.49939 4.0042 5.49733 3.9967C5.49518 3.98922 5.49462 3.98139 5.49555 3.97367C5.49658 3.96596 5.49911 3.95851 5.50294 3.95179C5.5065 3.94483 5.51126 3.93864 5.51716 3.93357C5.52305 3.92851 5.52997 3.92469 5.53736 3.92232C5.54475 3.91996 5.55261 3.9191 5.56028 3.91979C5.56804 3.92049 5.57562 3.92273 5.58245 3.92639Z" fill="url(#paint19_radial_7_340)"/>
<path d="M5.38417 2.99591C5.40372 2.95957 5.39053 2.91443 5.35462 2.8951C5.3187 2.87577 5.27371 2.88955 5.25416 2.9259C5.23461 2.96225 5.2478 3.00739 5.28371 3.02672C5.31963 3.04606 5.36462 3.03226 5.38417 2.99591Z" fill="#31165F"/>
<path fill-rule="evenodd" clip-rule="evenodd" d="M5.34736 2.90831C5.36093 2.91613 5.37084 2.9289 5.37514 2.94392C5.37935 2.95896 5.37767 2.97504 5.37018 2.98879C5.36279 3.00254 5.35036 3.01287 5.33548 3.01758C5.32061 3.02231 5.30443 3.02104 5.29049 3.01405C5.27693 3.00623 5.26701 2.99346 5.2628 2.97844C5.2585 2.96342 5.26028 2.94732 5.26767 2.93358C5.27506 2.91982 5.2875 2.90949 5.30237 2.90478C5.31734 2.90007 5.33343 2.90134 5.34736 2.90831Z" fill="url(#paint20_radial_7_340)"/>
<path fill-rule="evenodd" clip-rule="evenodd" d="M4.14439 2.37993C4.15299 2.3846 4.16057 2.39091 4.16674 2.3985C4.17282 2.40611 4.17741 2.41483 4.18012 2.42421C4.18292 2.43357 4.18376 2.44339 4.18273 2.45309C4.1817 2.4628 4.17872 2.4722 4.17404 2.48076C4.16478 2.49814 4.14897 2.51114 4.13017 2.51691C4.11128 2.52268 4.09097 2.52076 4.07358 2.51156C4.05637 2.50211 4.04355 2.48624 4.03794 2.46741C4.03242 2.44857 4.03448 2.4283 4.04383 2.41101C4.04832 2.40234 4.05459 2.39464 4.06207 2.38838C4.06965 2.38211 4.07826 2.37741 4.08761 2.37452C4.09696 2.37163 4.10678 2.37062 4.11661 2.37155C4.12633 2.37248 4.13578 2.37533 4.14439 2.37993Z" fill="#31165F"/>
<path fill-rule="evenodd" clip-rule="evenodd" d="M4.13718 2.39319C4.15074 2.401 4.16066 2.41377 4.16496 2.4288C4.16917 2.44382 4.16748 2.45991 4.16 2.47366C4.15261 2.48741 4.14017 2.49774 4.1253 2.50246C4.11043 2.50717 4.09425 2.5059 4.08031 2.49891C4.06675 2.4911 4.05683 2.47832 4.05253 2.4633C4.04832 2.44828 4.0501 2.43218 4.05749 2.41844C4.06488 2.40469 4.07732 2.39436 4.09219 2.38964C4.10715 2.38493 4.12324 2.3862 4.13718 2.39319Z" fill="url(#paint21_radial_7_340)"/>
<path fill-rule="evenodd" clip-rule="evenodd" d="M3.27043 2.57855C3.27894 2.5832 3.28651 2.58952 3.29269 2.59711C3.29877 2.60471 3.30335 2.61344 3.30615 2.62281C3.30887 2.63218 3.30971 2.642 3.30868 2.6517C3.30765 2.66141 3.30466 2.67081 3.29998 2.67937C3.29072 2.69675 3.27491 2.70974 3.25611 2.71552C3.23731 2.72129 3.21692 2.71937 3.19953 2.71017C3.18222 2.7007 3.1694 2.68477 3.16388 2.66587C3.15837 2.64698 3.16052 2.62665 3.16996 2.60936C3.17445 2.60072 3.18072 2.59307 3.1882 2.58685C3.19578 2.58062 3.20439 2.57595 3.21374 2.57308C3.22309 2.57022 3.23292 2.56923 3.24265 2.57017C3.25237 2.57111 3.26173 2.57395 3.27043 2.57855Z" fill="#31165F"/>
<path fill-rule="evenodd" clip-rule="evenodd" d="M3.26267 2.59253C3.27623 2.60034 3.28615 2.61312 3.29045 2.62814C3.29466 2.64316 3.29288 2.65926 3.28549 2.673C3.2781 2.68675 3.26566 2.69708 3.25079 2.7018C3.23592 2.70651 3.21973 2.70524 3.2058 2.69825C3.19223 2.69044 3.18232 2.67767 3.17802 2.66264C3.17381 2.64762 3.17559 2.63153 3.18298 2.61778C3.19037 2.60403 3.2028 2.59371 3.21768 2.58898C3.23264 2.58427 3.24873 2.58554 3.26267 2.59253Z" fill="url(#paint22_radial_7_340)"/>
<path fill-rule="evenodd" clip-rule="evenodd" d="M2.70692 3.40209C2.72422 3.41156 2.73694 3.42749 2.74256 3.44639C2.74807 3.46528 2.74592 3.48561 2.73648 3.5029C2.73199 3.51153 2.72572 3.51919 2.71824 3.52542C2.71066 3.53164 2.70206 3.53631 2.6927 3.53918C2.68335 3.54204 2.67353 3.54303 2.6638 3.54209C2.65407 3.54116 2.64463 3.53831 2.63602 3.53371C2.62751 3.52905 2.61983 3.52273 2.61375 3.51513C2.60758 3.50753 2.603 3.49879 2.6002 3.48941C2.59748 3.48004 2.59655 3.47021 2.59758 3.46048C2.5986 3.45076 2.6015 3.44134 2.60618 3.43275C2.61553 3.41539 2.63134 3.40242 2.65024 3.39667C2.66913 3.39093 2.68952 3.39287 2.70692 3.40209Z" fill="#31165F"/>
<path fill-rule="evenodd" clip-rule="evenodd" d="M2.69944 3.41601C2.70627 3.41973 2.71235 3.42479 2.71721 3.43087C2.72198 3.43695 2.72563 3.44393 2.72769 3.45143C2.72984 3.45891 2.7304 3.46674 2.72937 3.47445C2.72843 3.48217 2.72591 3.48962 2.72198 3.49634C2.71852 3.5033 2.71375 3.50949 2.70785 3.51455C2.70187 3.51961 2.69504 3.52344 2.68765 3.52581C2.68026 3.52817 2.6724 3.52903 2.66464 3.52834C2.65697 3.52764 2.64939 3.52539 2.64256 3.52175C2.629 3.51393 2.61909 3.50116 2.61478 3.48613C2.61057 3.47111 2.61236 3.45502 2.61975 3.44127C2.62713 3.42752 2.63957 3.41719 2.65444 3.41248C2.66941 3.40775 2.6855 3.40902 2.69944 3.41601Z" fill="url(#paint23_radial_7_340)"/>
<path fill-rule="evenodd" clip-rule="evenodd" d="M9.91551 8.71744L9.94161 8.66908L8.1676 7.77637L8.14355 7.82547L9.91551 8.71744Z" fill="#6F2561"/>
<path fill-rule="evenodd" clip-rule="evenodd" d="M9.67207 4.98645L9.64429 5.03356L11.3745 6.00741L11.3922 5.97464L9.67207 4.98645Z" fill="#6F2561"/>
<path fill-rule="evenodd" clip-rule="evenodd" d="M8.16113 5.40374L8.25449 5.23035L10.9045 6.88072L10.8395 7.00157L8.16113 5.40374Z" fill="url(#paint24_linear_7_340)"/>
<path fill-rule="evenodd" clip-rule="evenodd" d="M8.16113 5.40369L8.70327 5.85135L10.8395 7.00152L8.16113 5.40369Z" fill="#FF4C61"/>
<path opacity="0.5" fill-rule="evenodd" clip-rule="evenodd" d="M8.33594 5.28101L10.3676 5.82733L10.1192 6.2343L10.5519 6.47411L10.4765 6.61419L8.33594 5.28101Z" fill="#31165F"/>
<path d="M2.45465 4.82433C2.45465 4.82433 2.25664 4.73991 2.20557 4.55624L2.26337 4.46021C2.34157 4.56112 2.41434 4.66608 2.4814 4.77465L2.45465 4.82433Z" fill="white"/>
<g style="mix-blend-mode:soft-light">
<path d="M8.2505 4.00692L7.53223 3.3863L7.55935 3.33582L8.28267 3.94718L8.2505 4.00692Z" fill="white"/>
</g>
<path fill-rule="evenodd" clip-rule="evenodd" d="M4.71265 1.83109C4.71265 1.83109 4.81497 1.49102 5.04994 1.90563L4.71265 1.83109Z" fill="url(#paint25_linear_7_340)"/>
<path fill-rule="evenodd" clip-rule="evenodd" d="M2.7512 5.37671C2.7512 5.37671 2.68152 5.70567 2.98767 5.61004L2.7512 5.37671Z" fill="url(#paint26_linear_7_340)"/>
<g style="mix-blend-mode:soft-light" opacity="0.5">
<path fill-rule="evenodd" clip-rule="evenodd" d="M9.36496 7.61816C9.36496 7.61816 6.52201 7.10754 4.55119 6.44568L4.54736 6.5432C4.54736 6.5432 7.51668 7.6625 9.25384 7.88726L9.36496 7.61816Z" fill="white"/>
</g>
<g style="mix-blend-mode:soft-light">
<path fill-rule="evenodd" clip-rule="evenodd" d="M7.36189 3.25886L6.90796 2.89686L6.93387 2.84875L7.3878 3.21075L7.36189 3.25886Z" fill="white"/>
</g>
<g style="mix-blend-mode:soft-light">
<path fill-rule="evenodd" clip-rule="evenodd" d="M6.46045 6.88894C6.46045 6.88894 6.51152 6.23999 6.73274 5.71509C6.73274 5.71509 6.57484 6.27172 6.46045 6.88894Z" fill="white"/>
</g>
<g style="mix-blend-mode:soft-light">
<path fill-rule="evenodd" clip-rule="evenodd" d="M5.85669 4.66663L7.71732 5.65234C7.71732 5.65234 7.06284 5.25768 5.85669 4.66663Z" fill="white"/>
</g>
<g style="mix-blend-mode:soft-light">
<path fill-rule="evenodd" clip-rule="evenodd" d="M7.33325 7.04595C7.33325 7.04595 7.64304 5.60178 8.51985 4.52979C8.52116 4.5305 7.82741 5.30046 7.33325 7.04595Z" fill="white"/>
</g>
<path fill-rule="evenodd" clip-rule="evenodd" d="M2.61518 4.14603C2.61518 4.14603 2.77447 4.01223 2.51416 3.74353C2.53128 3.8813 2.56523 4.01647 2.61518 4.14603Z" fill="white"/>
<g style="mix-blend-mode:soft-light">
<path fill-rule="evenodd" clip-rule="evenodd" d="M5.63623 4.37975C5.63623 4.37975 5.83509 3.95974 5.65746 3.24024C5.65615 3.23952 5.89935 3.74477 5.63623 4.37975Z" fill="white"/>
</g>
<g style="mix-blend-mode:soft-light">
<path fill-rule="evenodd" clip-rule="evenodd" d="M5.19775 4.34315C5.19775 4.34315 5.57938 4.08836 5.36266 3.65698C5.36341 3.6574 5.4287 3.937 5.19775 4.34315Z" fill="white"/>
</g>
<g style="mix-blend-mode:soft-light" opacity="0.36">
<g style="mix-blend-mode:soft-light" opacity="0.36">
<path fill-rule="evenodd" clip-rule="evenodd" d="M5.95435 4.84019C5.95725 4.86902 5.95519 4.92039 5.99083 4.93075C6.00757 4.93358 6.0244 4.93548 6.04133 4.93643C6.05611 4.93929 6.07052 4.94364 6.08445 4.94943C6.10728 4.95889 6.13225 4.96161 6.15657 4.95725C6.17219 4.95302 6.16743 4.93716 6.1605 4.92527C6.1547 4.91167 6.14544 4.89985 6.13365 4.89101C6.11691 4.88175 6.1012 4.87079 6.08679 4.8583C6.08128 4.8533 6.07819 4.84514 6.0722 4.83986C6.06388 4.83414 6.05508 4.82937 6.04573 4.82563C6.03095 4.81814 6.01411 4.81551 5.99775 4.81812C5.98128 4.82074 5.96613 4.82846 5.95435 4.84019Z" fill="white"/>
</g>
<g style="mix-blend-mode:soft-light" opacity="0.36">
<path fill-rule="evenodd" clip-rule="evenodd" d="M6.17323 5.06919C6.16874 5.06867 6.16453 5.06682 6.16116 5.06389C6.1577 5.06097 6.15527 5.05709 6.15405 5.05276C6.17117 5.02104 6.23954 5.04352 6.23543 5.07952C6.23094 5.12143 6.18221 5.10062 6.16752 5.07909L6.17323 5.06919Z" fill="white"/>
</g>
<g style="mix-blend-mode:soft-light" opacity="0.36">
<path fill-rule="evenodd" clip-rule="evenodd" d="M6.25513 5.86444C6.25606 5.84379 6.2526 5.8242 6.26663 5.80824C6.27842 5.79519 6.29413 5.7863 6.31134 5.78287C6.33257 5.7796 6.35437 5.78095 6.37504 5.78681C6.38542 5.78719 6.39543 5.79057 6.40385 5.79655C6.43537 5.82611 6.43808 5.88314 6.43088 5.92187C6.42789 5.94447 6.42237 5.96666 6.41432 5.98798C6.40684 6.00199 6.40245 6.01771 6.39739 6.03274C6.39506 6.04574 6.39 6.05812 6.38261 6.06909C6.37382 6.0767 6.364 6.08288 6.35334 6.08741C6.33959 6.09434 6.32443 6.0978 6.30909 6.0975C6.29375 6.0972 6.27869 6.09314 6.26523 6.08569C6.21836 6.05808 6.21126 5.97955 6.21285 5.92964C6.21453 5.88926 6.22229 5.82731 6.25513 5.86444Z" fill="white"/>
</g>
<g style="mix-blend-mode:soft-light" opacity="0.36">
<path fill-rule="evenodd" clip-rule="evenodd" d="M6.27186 5.67762C6.28299 5.68938 6.28505 5.69562 6.29974 5.68921C6.30441 5.68624 6.30834 5.6823 6.31134 5.67766C6.31424 5.67302 6.3162 5.66779 6.31695 5.66233C6.3205 5.64243 6.30666 5.60736 6.28309 5.61001C6.27121 5.61179 6.24755 5.61846 6.23941 5.62775C6.23436 5.63998 6.2337 5.65362 6.23772 5.66625C6.24175 5.67889 6.25007 5.6897 6.2613 5.69678L6.27186 5.67762Z" fill="white"/>
</g>
<g style="mix-blend-mode:soft-light" opacity="0.36">
<path fill-rule="evenodd" clip-rule="evenodd" d="M7.08065 5.29623C7.08663 5.30223 7.09356 5.30713 7.10123 5.31068C7.11975 5.32064 7.13817 5.3306 7.15698 5.3407C7.19186 5.3595 7.22413 5.3837 7.25986 5.40292C7.28568 5.41601 7.31253 5.42693 7.34012 5.43556C7.35424 5.44071 7.36855 5.44514 7.38314 5.44881C7.38464 5.44591 7.37782 5.44154 7.37567 5.43866C7.36828 5.42889 7.35883 5.42042 7.35228 5.41042C7.33769 5.38754 7.32197 5.3641 7.3057 5.34239C7.30205 5.33879 7.29887 5.33477 7.29616 5.33042C7.29354 5.32456 7.29204 5.31725 7.2898 5.31128C7.28577 5.29994 7.27997 5.28933 7.27258 5.27987C7.25378 5.25945 7.23077 5.24343 7.20505 5.23297C7.19691 5.22855 7.18794 5.2268 7.17989 5.2228C7.1711 5.21803 7.16193 5.2138 7.15258 5.21016C7.13238 5.20393 7.11105 5.20174 7.08991 5.2037C7.06559 5.20457 7.02639 5.19949 7.00806 5.22096C6.99908 5.23117 7.00965 5.24263 7.01817 5.24961C7.02668 5.25658 7.04108 5.26467 7.05221 5.27307C7.06344 5.28147 7.08411 5.30009 7.08065 5.29623Z" fill="white"/>
</g>
<g style="mix-blend-mode:soft-light" opacity="0.36">
<path fill-rule="evenodd" clip-rule="evenodd" d="M6.92906 5.18192C6.92317 5.17193 6.90933 5.15526 6.92111 5.14353C6.9329 5.13179 6.94974 5.14158 6.95937 5.14845C6.98173 5.16524 6.94047 5.1836 6.92466 5.17238L6.92906 5.18192Z" fill="white"/>
</g>
<g style="mix-blend-mode:soft-light" opacity="0.36">
<path fill-rule="evenodd" clip-rule="evenodd" d="M7.21136 5.02365C7.21697 5.03359 7.22576 5.04134 7.23633 5.04563C7.24363 5.04806 7.25167 5.04758 7.25859 5.04429C7.26561 5.04101 7.27104 5.03515 7.27384 5.02796C7.28591 5.00549 7.28955 4.98733 7.27029 4.97117C7.26224 4.9662 7.25326 4.96299 7.24381 4.96175C7.23446 4.96052 7.22492 4.96129 7.21585 4.96402C7.20865 4.96683 7.20256 4.97193 7.19845 4.97853C7.19106 4.99228 7.19704 5.00401 7.20434 5.01578L7.21136 5.02365Z" fill="white"/>
</g>
<g style="mix-blend-mode:soft-light" opacity="0.36">
<path fill-rule="evenodd" clip-rule="evenodd" d="M8.18237 4.89318C8.18368 4.85055 8.19013 4.80822 8.20145 4.7671C8.21492 4.73248 8.23026 4.69864 8.24756 4.66575C8.26468 4.61732 8.27834 4.56774 8.28853 4.51737C8.2977 4.47315 8.31753 4.43187 8.34643 4.39717C8.35841 4.3832 8.37309 4.37181 8.38955 4.36369C8.40611 4.35558 8.42407 4.35091 8.4424 4.34998C8.46466 4.35086 8.48665 4.35552 8.50732 4.36375C8.51658 4.36874 8.52602 4.37144 8.53528 4.37508C8.54136 4.37646 8.54726 4.37849 8.55287 4.38112C8.56157 4.38582 8.5596 4.38951 8.55511 4.39771C8.54838 4.41259 8.53715 4.42501 8.52303 4.43327C8.49955 4.44916 8.47907 4.46904 8.46242 4.49201C8.44539 4.51352 8.42762 4.53326 8.412 4.5559L8.36542 4.6215C8.35176 4.64003 8.33746 4.65826 8.32389 4.67719C8.31024 4.69613 8.29929 4.71581 8.28722 4.73518C8.27507 4.75456 8.26926 4.76849 8.26028 4.78514C8.25458 4.79571 8.24738 4.80476 8.24167 4.81533C8.23728 4.8235 8.23232 4.8313 8.22671 4.83865C8.22213 4.84627 8.21792 4.85412 8.21408 4.86217C8.20463 4.87366 8.19407 4.88406 8.18237 4.89318Z" fill="white"/>
</g>
<g style="mix-blend-mode:soft-light" opacity="0.36">
<path fill-rule="evenodd" clip-rule="evenodd" d="M8.15302 4.59996C8.15452 4.60727 8.15452 4.61612 8.16014 4.62087C8.16332 4.62323 8.16678 4.6251 8.17042 4.62641C8.18707 4.63095 8.20138 4.60626 8.20793 4.5941C8.22842 4.55924 8.23496 4.51795 8.22626 4.47848C8.22308 4.46502 8.21682 4.45249 8.20802 4.44184C8.19923 4.43118 8.1881 4.4227 8.17548 4.41704C8.14068 4.40685 8.10504 4.4313 8.08278 4.45681C8.06052 4.48233 8.04013 4.51838 8.04985 4.55091C8.05257 4.56238 8.05911 4.57259 8.06828 4.57994C8.07679 4.584 8.0854 4.58755 8.09428 4.59053C8.10541 4.59651 8.11178 4.60744 8.12581 4.60747C8.13544 4.60793 8.14498 4.6053 8.15302 4.59996Z" fill="white"/>
</g>
<g style="mix-blend-mode:soft-light" opacity="0.36">
<path fill-rule="evenodd" clip-rule="evenodd" d="M8.26472 4.39845C8.26107 4.39806 8.2577 4.39653 8.25499 4.39409C8.25218 4.39165 8.25031 4.3884 8.24956 4.38483C8.24741 4.38133 8.24648 4.37722 8.24694 4.37314C8.24741 4.36906 8.24928 4.36526 8.25209 4.36234C8.25452 4.35966 8.25751 4.35752 8.26079 4.35608C8.26416 4.35464 8.26771 4.35393 8.27136 4.35401C8.275 4.35407 8.27856 4.35493 8.28183 4.3565C8.28501 4.35806 8.28791 4.36031 8.29025 4.36309C8.29278 4.36743 8.29418 4.37233 8.29437 4.37736C8.29456 4.38239 8.29343 4.38737 8.29109 4.39186C8.28875 4.39673 8.28492 4.40066 8.28006 4.40299C8.27519 4.40534 8.26967 4.40596 8.26444 4.40475L8.26472 4.39845Z" fill="white"/>
</g>
<g style="mix-blend-mode:soft-light" opacity="0.36">
<path fill-rule="evenodd" clip-rule="evenodd" d="M7.67928 3.74678C7.67648 3.75965 7.67873 3.77312 7.68574 3.78432C7.68696 3.78763 7.6892 3.79051 7.692 3.79261C7.6949 3.79469 7.69837 3.7959 7.70183 3.79608C7.72577 3.79583 7.74869 3.78705 7.76665 3.77132C7.77245 3.76584 7.77712 3.75928 7.78031 3.75199C7.78358 3.74471 7.78526 3.73687 7.78545 3.72891C7.78348 3.7148 7.77937 3.70108 7.7732 3.68825C7.76889 3.6767 7.76384 3.6658 7.75748 3.65419C7.75467 3.64432 7.74878 3.63561 7.74074 3.62935C7.7326 3.62308 7.72268 3.61959 7.71249 3.61938C7.70136 3.6205 7.6907 3.62431 7.68144 3.63049C7.67218 3.63667 7.6646 3.64504 7.65927 3.65484C7.65338 3.66882 7.65094 3.68398 7.65216 3.69909C7.65319 3.71497 7.65141 3.72835 7.67928 3.74678Z" fill="white"/>
</g>
<g style="mix-blend-mode:soft-light" opacity="0.36">
<path fill-rule="evenodd" clip-rule="evenodd" d="M7.71757 3.85574C7.72375 3.84604 7.73179 3.83762 7.74115 3.83093C7.74564 3.83336 7.75096 3.82908 7.75517 3.83405C7.75929 3.83901 7.75218 3.85222 7.74881 3.85789C7.74442 3.8654 7.7374 3.87099 7.72908 3.87355C7.72599 3.87426 7.71299 3.87817 7.7157 3.87113L7.71757 3.85574Z" fill="white"/>
</g>
<g style="mix-blend-mode:soft-light" opacity="0.36">
<path fill-rule="evenodd" clip-rule="evenodd" d="M7.81092 5.08528C7.81887 5.09774 7.82776 5.1117 7.84656 5.10717C7.85441 5.10372 7.86115 5.09798 7.86573 5.09072C7.87041 5.08344 7.87275 5.07495 7.87256 5.06632C7.8734 5.05788 7.87406 5.04837 7.86695 5.04319C7.85993 5.03801 7.85086 5.03451 7.84291 5.03024C7.8242 5.02013 7.82121 4.99332 7.79399 5.00082C7.78753 5.00288 7.78164 5.00631 7.77668 5.01086C7.77173 5.01542 7.76771 5.02099 7.76509 5.02721C7.75845 5.0485 7.77304 5.06895 7.78557 5.08424L7.81092 5.08528Z" fill="white"/>
</g>
<g style="mix-blend-mode:soft-light" opacity="0.36">
<path fill-rule="evenodd" clip-rule="evenodd" d="M7.67817 6.99285C7.67134 7.01689 7.67144 7.04224 7.67827 7.06618L7.6865 7.07067C7.69164 7.0775 7.69828 7.08311 7.70586 7.08723C7.71343 7.09125 7.72176 7.09368 7.73037 7.09424C7.78499 7.09471 7.80416 7.0471 7.82596 7.00595C7.84775 6.96488 7.88442 6.90886 7.81343 6.89688C7.782 6.89192 7.72943 6.88005 7.69847 6.89641C7.68182 6.90511 7.68257 6.91447 7.68023 6.93018C7.67471 6.95179 7.6734 6.97424 7.67639 6.99631L7.67817 6.99285Z" fill="white"/>
</g>
<g style="mix-blend-mode:soft-light" opacity="0.36">
<path fill-rule="evenodd" clip-rule="evenodd" d="M8.01593 6.52705C8.00798 6.51392 7.99049 6.4919 7.99787 6.47371C8.00526 6.45554 8.01462 6.45851 8.02715 6.45231C8.05465 6.43851 8.08674 6.42846 8.10292 6.46548C8.1061 6.47539 8.10694 6.48589 8.10544 6.49619C8.10395 6.50648 8.10002 6.51629 8.09412 6.52485C8.08365 6.53796 8.05297 6.55315 8.03866 6.53928L8.01593 6.52705Z" fill="white"/>
</g>
<g style="mix-blend-mode:soft-light" opacity="0.36">
<path fill-rule="evenodd" clip-rule="evenodd" d="M5.3602 2.39381C5.38452 2.42772 5.38564 2.43004 5.42399 2.43871C5.45262 2.44877 5.4833 2.45159 5.51332 2.44693C5.55401 2.43473 5.56486 2.39799 5.58881 2.36997C5.59807 2.36201 5.60508 2.35175 5.6092 2.34023C5.61322 2.3287 5.61415 2.31632 5.61191 2.30432C5.60592 2.27282 5.59414 2.24269 5.5773 2.21543C5.54793 2.17384 5.50977 2.13921 5.46553 2.11398C5.42138 2.08876 5.37208 2.07357 5.32139 2.06949C5.25937 2.06505 5.18388 2.06774 5.13712 2.11656C5.11701 2.13652 5.1027 2.16155 5.09559 2.18898C5.08848 2.21642 5.08895 2.24527 5.0969 2.27248C5.107 2.29878 5.12328 2.32226 5.14432 2.34097C5.16537 2.35967 5.19062 2.37304 5.21793 2.37997L5.25694 2.38867C5.27237 2.39513 5.28715 2.40309 5.30109 2.41244C5.31792 2.41845 5.33682 2.417 5.3602 2.39381Z" fill="white"/>
</g>
<g style="mix-blend-mode:soft-light" opacity="0.36">
<path fill-rule="evenodd" clip-rule="evenodd" d="M5.43872 2.55381C5.4824 2.53606 5.47379 2.53862 5.50878 2.55029C5.52393 2.55571 5.53001 2.55147 5.54152 2.56176C5.54863 2.57011 5.55302 2.58041 5.55424 2.59132C5.55545 2.60224 5.5533 2.61325 5.54807 2.62293C5.54086 2.63641 5.50316 2.64306 5.49026 2.64294C5.48231 2.64324 5.47445 2.6412 5.46762 2.63704C5.46089 2.6329 5.45546 2.62684 5.452 2.61962L5.43872 2.55381Z" fill="white"/>
</g>
<g style="mix-blend-mode:soft-light" opacity="0.36">
<path fill-rule="evenodd" clip-rule="evenodd" d="M3.70914 5.74823C3.73205 5.76907 3.76039 5.79625 3.79641 5.77612C3.82035 5.76207 3.82484 5.72325 3.82073 5.69747C3.80988 5.65328 3.78518 5.61371 3.7502 5.58454C3.71793 5.561 3.65816 5.58336 3.63683 5.61347C3.59343 5.67502 3.67752 5.76527 3.72316 5.79633L3.70914 5.74823Z" fill="white"/>
</g>
<g style="mix-blend-mode:soft-light" opacity="0.36">
<path fill-rule="evenodd" clip-rule="evenodd" d="M3.98516 5.95543C3.97543 5.955 3.94475 5.95891 3.93662 5.95115C3.93213 5.94873 3.93493 5.94169 3.93231 5.93759C3.92764 5.93084 3.92436 5.92315 3.92286 5.91504C3.92137 5.90693 3.92156 5.89858 3.92352 5.89058C3.9281 5.87434 3.93783 5.86005 3.9513 5.84992C3.96477 5.83979 3.98123 5.83438 3.99807 5.83454C4.00901 5.83301 4.02024 5.83555 4.0295 5.84167C4.03876 5.84777 4.0454 5.85705 4.04839 5.86776C4.05232 5.88209 4.05082 5.89739 4.04418 5.91068C4.03754 5.92398 4.02613 5.93433 4.01228 5.93974L3.98516 5.95543Z" fill="white"/>
</g>
<g style="mix-blend-mode:soft-light" opacity="0.36">
<path fill-rule="evenodd" clip-rule="evenodd" d="M9.03571 4.92137C9.072 4.96574 9.12186 4.99701 9.17761 5.01041C9.21306 5.02129 9.25749 5.03942 9.29041 5.01248C9.3674 4.94927 9.22868 4.79411 9.18173 4.74944C9.14113 4.71034 9.09277 4.68023 9.03983 4.66106C9.00812 4.65084 8.93853 4.64269 8.90841 4.66327C8.86959 4.68976 8.86987 4.74484 8.88708 4.78135C8.92469 4.86979 9.01766 4.90108 9.07977 4.96554L9.03571 4.92137Z" fill="white"/>
</g>
<g style="mix-blend-mode:soft-light" opacity="0.36">
<path fill-rule="evenodd" clip-rule="evenodd" d="M9.00177 4.95698C8.99251 4.97766 8.98624 4.99953 8.98315 5.02196C8.98409 5.03408 8.9854 5.05319 8.99531 5.06263C9.00233 5.0672 9.01037 5.06993 9.01879 5.07056C9.02711 5.07118 9.03553 5.0697 9.04311 5.06622C9.04891 5.06457 9.05415 5.06152 9.05845 5.05733C9.06275 5.05315 9.06584 5.04796 9.06762 5.04224C9.06874 5.03328 9.06172 5.02165 9.05798 5.01388C9.05097 4.99965 9.04227 4.98627 9.03207 4.97402C9.02805 4.96757 9.02319 4.96166 9.01776 4.95639C9.00832 4.94859 9.00074 4.95373 8.99111 4.95196L9.00177 4.95698Z" fill="white"/>
</g>
<g style="mix-blend-mode:soft-light" opacity="0.36">
<path fill-rule="evenodd" clip-rule="evenodd" d="M9.39762 5.22908L9.42456 5.20947C9.4341 5.21702 9.44841 5.2196 9.44972 5.2336C9.44841 5.24693 9.44261 5.25943 9.43335 5.2691C9.42868 5.27388 9.4225 5.27696 9.41586 5.27783C9.40922 5.2787 9.40249 5.27731 9.39669 5.27391C9.38238 5.26622 9.38387 5.24961 9.38846 5.23538L9.39762 5.22908Z" fill="white"/>
</g>
<g style="mix-blend-mode:soft-light" opacity="0.36">
<path fill-rule="evenodd" clip-rule="evenodd" d="M9.28556 6.79533C9.2894 6.80119 9.2951 6.80563 9.30165 6.80801C9.3082 6.81039 9.3154 6.81057 9.32213 6.80853C9.33355 6.80586 9.34355 6.79897 9.35019 6.78923C9.35674 6.77949 9.35936 6.76762 9.35759 6.75601C9.35216 6.7224 9.32513 6.67377 9.28968 6.66357C9.2676 6.65712 9.23028 6.67077 9.23122 6.69752C9.23122 6.71259 9.2329 6.72761 9.23645 6.74227C9.24553 6.76385 9.26152 6.78181 9.28191 6.79334L9.28556 6.79533Z" fill="white"/>
</g>
<g style="mix-blend-mode:soft-light" opacity="0.36">
<path fill-rule="evenodd" clip-rule="evenodd" d="M3.19771 2.21938C3.20145 2.23332 3.20164 2.23991 3.2123 2.24869C3.22334 2.2596 3.23821 2.26578 3.25383 2.26593C3.29012 2.25792 3.32268 2.23761 3.34578 2.20841C3.35513 2.19881 3.36215 2.18716 3.36627 2.1744C3.37029 2.16164 3.37141 2.1481 3.36935 2.13485C3.36813 2.11935 3.36355 2.1043 3.35598 2.09071C3.3484 2.07712 3.33802 2.06529 3.32558 2.05603C3.31417 2.0456 3.29966 2.03903 3.28432 2.03724C3.26898 2.03545 3.25346 2.03853 3.2399 2.04605C3.21109 2.05943 3.18527 2.07863 3.16422 2.10246C3.15665 2.11197 3.15151 2.12312 3.14917 2.135C3.14683 2.14688 3.14729 2.15915 3.15057 2.17081C3.15534 2.19419 3.16834 2.22842 3.19771 2.21938Z" fill="white"/>
</g>
<g style="mix-blend-mode:soft-light" opacity="0.36">
<path fill-rule="evenodd" clip-rule="evenodd" d="M3.40607 2.05715C3.39812 2.05288 3.38886 2.0479 3.39092 2.0391C3.39447 2.03187 3.39952 2.02544 3.4057 2.0202C3.41187 2.01496 3.41898 2.01102 3.42674 2.00862C3.4389 2.00582 3.45162 2.00759 3.46256 2.0136C3.46855 2.01972 3.47211 2.0278 3.47248 2.03633C3.47379 2.04252 3.47313 2.04896 3.47061 2.05474C3.46799 2.06053 3.46369 2.06536 3.45827 2.06854C3.45041 2.07287 3.43273 2.08482 3.42441 2.07691L3.40607 2.05715Z" fill="white"/>
</g>
<g style="mix-blend-mode:soft-light" opacity="0.36">
<path fill-rule="evenodd" clip-rule="evenodd" d="M2.06168 2.17088C2.07253 2.17879 2.08581 2.18257 2.09919 2.18155C2.1236 2.17978 2.14727 2.17245 2.16832 2.16013C2.19703 2.14566 2.22032 2.12236 2.23482 2.09365C2.23809 2.08213 2.23799 2.0699 2.23453 2.05844C2.23098 2.04699 2.22425 2.0368 2.21499 2.02912C2.19095 2.01285 2.16186 2.00564 2.13286 2.00877C2.10705 2.01231 2.08235 2.02198 2.06103 2.03699C2.03961 2.05201 2.02221 2.07191 2.01005 2.09504C1.98685 2.149 2.06224 2.19198 2.06168 2.17088Z" fill="white"/>
</g>
<g style="mix-blend-mode:soft-light" opacity="0.36">
<path fill-rule="evenodd" clip-rule="evenodd" d="M2.36219 2.04389C2.35424 2.04673 2.34563 2.04731 2.3374 2.04556C2.33806 2.03605 2.33113 2.02926 2.33244 2.01936C2.33478 2.00973 2.34077 2.00137 2.34909 1.99596C2.35424 1.99219 2.36032 1.98986 2.36668 1.9892C2.37304 1.98855 2.3794 1.98959 2.3852 1.99222C2.39839 1.99932 2.39895 2.00539 2.39867 2.01921C2.39838 2.03304 2.39932 2.03186 2.38885 2.03745C2.38249 2.04148 2.37575 2.04483 2.36873 2.04745L2.36219 2.04389Z" fill="white"/>
</g>
</g>
<path fill-rule="evenodd" clip-rule="evenodd" d="M7.34105 6.90813C7.38248 6.93049 7.40316 6.97333 7.38679 7.00373C7.37042 7.03413 7.32337 7.04049 7.28184 7.01813C7.24031 6.99578 7.22001 6.95312 7.23638 6.92272C7.25275 6.89233 7.29952 6.88587 7.34105 6.90813Z" fill="url(#paint27_linear_7_340)"/>
<path fill-rule="evenodd" clip-rule="evenodd" d="M7.33456 6.91989C7.36739 6.93747 7.38339 6.97105 7.37048 6.99509C7.35748 7.01913 7.32072 7.02418 7.28789 7.00659C7.25515 6.98892 7.23907 6.95543 7.25207 6.9313C7.26497 6.90726 7.3021 6.9024 7.33456 6.91989Z" fill="white"/>
<path fill-rule="evenodd" clip-rule="evenodd" d="M8.3672 4.62628C8.38609 4.63425 8.40115 4.64932 8.40901 4.66824C8.41696 4.68716 8.41715 4.70843 8.40957 4.72748C8.39779 4.74432 8.38001 4.75588 8.35981 4.75969C8.3397 4.7635 8.31884 4.75926 8.30172 4.74787C8.28283 4.73989 8.26777 4.72481 8.25982 4.70587C8.25187 4.68693 8.25159 4.66563 8.25916 4.64652C8.27095 4.6297 8.28891 4.61816 8.30911 4.61438C8.32922 4.6106 8.35018 4.61488 8.3672 4.62628Z" fill="url(#paint28_linear_7_340)"/>
<path fill-rule="evenodd" clip-rule="evenodd" d="M8.36026 4.63918C8.37522 4.64547 8.38701 4.65733 8.39327 4.67223C8.39954 4.68712 8.39973 4.70387 8.39374 4.7189C8.38448 4.73213 8.37036 4.74121 8.35455 4.7442C8.33865 4.74718 8.32219 4.74383 8.30881 4.73486C8.29394 4.72858 8.28206 4.71672 8.27579 4.70182C8.26953 4.68692 8.26943 4.67017 8.27532 4.65515C8.28458 4.64191 8.29871 4.63283 8.31452 4.62985C8.33042 4.62686 8.34688 4.63022 8.36026 4.63918Z" fill="white"/>
<path d="M7.83714 5.76428C7.85978 5.72224 7.84444 5.67 7.80281 5.6476C7.76119 5.6252 7.70909 5.64113 7.68646 5.68316C7.66382 5.72521 7.67925 5.77745 7.72088 5.79984C7.76241 5.82224 7.8145 5.80632 7.83714 5.76428Z" fill="url(#paint29_linear_7_340)"/>
<path fill-rule="evenodd" clip-rule="evenodd" d="M7.79408 5.66371C7.8098 5.67236 7.82149 5.68688 7.82654 5.7041C7.83159 5.72132 7.82953 5.73983 7.82102 5.75559C7.8126 5.77142 7.79819 5.78327 7.78108 5.78854C7.76387 5.79382 7.74535 5.79208 7.72945 5.78371C7.71373 5.77506 7.70213 5.76055 7.69708 5.74333C7.69203 5.72611 7.694 5.70759 7.7026 5.69183C7.71102 5.676 7.72542 5.66415 7.74254 5.65888C7.75966 5.6536 7.77818 5.65534 7.79408 5.66371Z" fill="white"/>
<path style="mix-blend-mode:screen" d="M7.83912 5.20164C7.90413 5.20964 7.96689 5.23048 8.02376 5.26293C8.08063 5.29538 8.13049 5.3388 8.17043 5.39067C8.21046 5.44254 8.23974 5.50183 8.25658 5.56511C8.27351 5.62838 8.27762 5.69438 8.26883 5.75927C8.25218 5.89101 8.18418 6.01089 8.07979 6.09288C7.97531 6.17488 7.84277 6.21239 7.71079 6.1973C7.64578 6.18924 7.58311 6.16839 7.52624 6.13593C7.46937 6.10347 7.41951 6.06005 7.37957 6.00819C7.33954 5.95632 7.31027 5.89704 7.29343 5.83379C7.2765 5.77054 7.27229 5.70455 7.28108 5.63967C7.29773 5.50791 7.36564 5.38805 7.47012 5.30605C7.5746 5.22405 7.70714 5.18654 7.83912 5.20164Z" fill="url(#paint30_radial_7_340)"/>
<path style="mix-blend-mode:screen" d="M4.90043 1.41888C4.95225 1.42528 5.00239 1.4419 5.04775 1.46779C5.09312 1.49367 5.13296 1.52831 5.16486 1.56968C5.19676 1.61106 5.22014 1.65835 5.2337 1.70883C5.24717 1.7593 5.25054 1.81197 5.24352 1.86375C5.23015 1.9689 5.17589 2.06453 5.09246 2.12995C5.00902 2.19538 4.90323 2.22532 4.79791 2.21331C4.74609 2.20686 4.69605 2.19019 4.65069 2.16427C4.60523 2.13834 4.56548 2.10369 4.53358 2.06229C4.50168 2.0209 4.4783 1.97359 4.46483 1.92311C4.45136 1.87261 4.44799 1.81996 4.45492 1.76817C4.46838 1.66306 4.52263 1.56747 4.60598 1.5021C4.68941 1.43672 4.79511 1.40682 4.90043 1.41888Z" fill="url(#paint31_radial_7_340)"/>
<path style="mix-blend-mode:screen" d="M1.51729 2.02949C1.56911 2.03588 1.61924 2.05251 1.66461 2.07839C1.70998 2.10428 1.74982 2.13891 1.78171 2.18029C1.81361 2.22166 1.837 2.26896 1.85056 2.31944C1.86403 2.36991 1.86739 2.42257 1.86038 2.47436C1.84719 2.57957 1.79294 2.6753 1.70951 2.74075C1.62607 2.8062 1.52019 2.83609 1.41477 2.82391C1.36295 2.81751 1.31291 2.80089 1.26745 2.77501C1.22209 2.74912 1.18233 2.71449 1.15034 2.67311C1.11845 2.63173 1.09506 2.58444 1.08159 2.53396C1.06803 2.48348 1.06466 2.43082 1.07168 2.37904C1.08505 2.27386 1.13931 2.17818 1.22265 2.11274C1.30608 2.04731 1.41197 2.01739 1.51729 2.02949Z" fill="url(#paint32_radial_7_340)"/>
<path style="mix-blend-mode:screen" d="M2.8507 5.31066C2.87745 5.31396 2.90336 5.32255 2.92683 5.33591C2.95022 5.34929 2.9708 5.36718 2.98735 5.38855C3.00382 5.40992 3.01588 5.43434 3.02289 5.46042C3.02991 5.4865 3.0316 5.5137 3.02804 5.54045C3.02112 5.59482 2.99306 5.64429 2.94994 5.67813C2.90691 5.71198 2.85219 5.72747 2.79775 5.72125C2.77091 5.71793 2.745 5.70932 2.72162 5.69593C2.69814 5.68253 2.67756 5.66462 2.6611 5.64322C2.64463 5.62182 2.63257 5.59737 2.62555 5.57127C2.61863 5.54518 2.61686 5.51796 2.6205 5.49119C2.62752 5.4369 2.65548 5.38752 2.6986 5.35373C2.74163 5.31995 2.79626 5.30448 2.8507 5.31066Z" fill="url(#paint33_radial_7_340)"/>
<path style="mix-blend-mode:screen" d="M8.34067 4.53082C8.36583 4.53384 8.39015 4.54182 8.41222 4.55431C8.43421 4.56681 8.45357 4.58354 8.4691 4.60357C8.48462 4.62359 8.49594 4.64651 8.50258 4.67097C8.50913 4.69543 8.51081 4.72096 8.50744 4.74606C8.50108 4.79691 8.47489 4.84317 8.43458 4.87478C8.39417 4.90639 8.34301 4.92078 8.29212 4.91482C8.26706 4.91175 8.24292 4.90374 8.22103 4.89126C8.19905 4.87877 8.17988 4.86206 8.16445 4.8421C8.14901 4.82213 8.13779 4.79929 8.13124 4.77493C8.1247 4.75057 8.1231 4.72515 8.12647 4.70015C8.13274 4.64945 8.15874 4.60326 8.19887 4.57157C8.2389 4.53989 8.28988 4.52525 8.34067 4.53082Z" fill="url(#paint34_radial_7_340)"/>
<path style="mix-blend-mode:screen" d="M7.31714 6.8067C7.3422 6.80979 7.36633 6.81783 7.38822 6.83029C7.4102 6.84283 7.42938 6.85957 7.44481 6.87959C7.46025 6.89961 7.47147 6.92243 7.47802 6.94684C7.48447 6.97116 7.48606 6.9966 7.48269 7.02167C7.47624 7.07246 7.45005 7.11867 7.40983 7.15028C7.36961 7.1819 7.31844 7.1963 7.26765 7.1905C7.24258 7.18742 7.21836 7.17937 7.19638 7.16693C7.17449 7.1544 7.15522 7.13766 7.13978 7.11764C7.12435 7.09762 7.11304 7.0748 7.10658 7.05039C7.10003 7.02597 7.09845 7.00053 7.10181 6.97546C7.10827 6.92467 7.13446 6.87847 7.17477 6.84685C7.21508 6.81525 7.26625 6.80083 7.31714 6.8067Z" fill="url(#paint35_radial_7_340)"/>
</g>
<defs>
<linearGradient id="paint0_linear_7_340" x1="13.9529" y1="8.79357" x2="10.2652" y2="6.80815" gradientUnits="userSpaceOnUse">
<stop stop-opacity="0"/>
<stop offset="1" stop-color="#106D90"/>
</linearGradient>
<linearGradient id="paint1_linear_7_340" x1="11.566" y1="5.65193" x2="9.09705" y2="4.32264" gradientUnits="userSpaceOnUse">
<stop stop-color="#A43440"/>
<stop offset="1" stop-color="#C73634"/>
</linearGradient>
<linearGradient id="paint2_linear_7_340" x1="9.7418" y1="9.04017" x2="7.27281" y2="7.71083" gradientUnits="userSpaceOnUse">
<stop stop-color="#A43440"/>
<stop offset="1" stop-color="#C73634"/>
</linearGradient>
<radialGradient id="paint3_radial_7_340" cx="0" cy="0" r="1" gradientUnits="userSpaceOnUse" gradientTransform="translate(4.05238 3.2338) rotate(-61.702) scale(3.18614 5.74998)">
<stop stop-color="#F4BAB3"/>
<stop offset="0.77" stop-color="#8D6FC7"/>
<stop offset="0.96" stop-color="#B695E5"/>
</radialGradient>
<radialGradient id="paint4_radial_7_340" cx="0" cy="0" r="1" gradientUnits="userSpaceOnUse" gradientTransform="translate(1.38796 2.37318) rotate(-61.702) scale(0.856422 0.764063)">
<stop offset="0.02" stop-color="#AB5E75"/>
<stop offset="0.25" stop-color="#9F577B"/>
<stop offset="0.67" stop-color="#7F458C"/>
<stop offset="0.99" stop-color="#61349C"/>
</radialGradient>
<linearGradient id="paint5_linear_7_340" x1="1.55599" y1="2.46326" x2="1.2475" y2="2.29718" gradientUnits="userSpaceOnUse">
<stop stop-color="#FFFF18"/>
<stop offset="1" stop-color="#FF7400"/>
</linearGradient>
<radialGradient id="paint6_radial_7_340" cx="0" cy="0" r="1" gradientUnits="userSpaceOnUse" gradientTransform="translate(8.04998 5.98873) rotate(-61.702) scale(1.5129 2.74399)">
<stop offset="0.02" stop-color="#8881BC"/>
<stop offset="0.29" stop-color="#8375B7"/>
<stop offset="0.77" stop-color="#7555AA"/>
<stop offset="0.99" stop-color="#6D43A3"/>
</radialGradient>
<radialGradient id="paint7_radial_7_340" cx="0" cy="0" r="1" gradientUnits="userSpaceOnUse" gradientTransform="translate(4.33922 3.98255) rotate(-61.702) scale(1.60874 1.59297)">
<stop offset="0.02" stop-color="#8881BC"/>
<stop offset="0.29" stop-color="#8375B7"/>
<stop offset="0.77" stop-color="#7555AA"/>
<stop offset="0.99" stop-color="#6D43A3"/>
</radialGradient>
<radialGradient id="paint8_radial_7_340" cx="0" cy="0" r="1" gradientUnits="userSpaceOnUse" gradientTransform="translate(2.96654 3.31956) rotate(-61.702) scale(2.00147 3.306)">
<stop offset="0.02" stop-color="#725EB0"/>
<stop offset="0.38" stop-color="#6D52AA"/>
<stop offset="0.99" stop-color="#61349C"/>
</radialGradient>
<linearGradient id="paint9_linear_7_340" x1="5.16244" y1="4.3845" x2="3.00567" y2="3.22327" gradientUnits="userSpaceOnUse">
<stop stop-color="#FFFF29"/>
<stop offset="1" stop-color="#FF7E59"/>
</linearGradient>
<radialGradient id="paint10_radial_7_340" cx="0" cy="0" r="1" gradientUnits="userSpaceOnUse" gradientTransform="translate(10.086 7.05549) rotate(-61.702) scale(0.594321 1.07793)">
<stop offset="0.02" stop-color="#725EB0"/>
<stop offset="0.38" stop-color="#6D52AA"/>
<stop offset="0.99" stop-color="#61349C"/>
</radialGradient>
<radialGradient id="paint11_radial_7_340" cx="0" cy="0" r="1" gradientUnits="userSpaceOnUse" gradientTransform="translate(2.52656 2.99133) rotate(-61.702) scale(1.09526 1.08451)">
<stop offset="0.02" stop-color="#8881BC"/>
<stop offset="0.29" stop-color="#8375B7"/>
<stop offset="0.77" stop-color="#7555AA"/>
<stop offset="0.99" stop-color="#6D43A3"/>
</radialGradient>
<linearGradient id="paint12_linear_7_340" x1="7.02576" y1="5.48223" x2="6.89575" y2="5.41221" gradientUnits="userSpaceOnUse">
<stop stop-color="#8DC7FF"/>
<stop offset="0.32" stop-color="#5C4D86"/>
</linearGradient>
<radialGradient id="paint13_radial_7_340" cx="0" cy="0" r="1" gradientUnits="userSpaceOnUse" gradientTransform="translate(7.00158 5.4838) rotate(-61.7016) scale(0.0590955 0.0585168)">
<stop offset="0.02" stop-color="#8881BC"/>
<stop offset="0.29" stop-color="#8375B7"/>
<stop offset="0.77" stop-color="#7555AA"/>
<stop offset="1" stop-color="#6D43A3"/>
</radialGradient>
<linearGradient id="paint14_linear_7_340" x1="6.7049" y1="5.30952" x2="6.5746" y2="5.23935" gradientUnits="userSpaceOnUse">
<stop stop-color="#8DC7FF"/>
<stop offset="0.32" stop-color="#5C4D86"/>
</linearGradient>
<radialGradient id="paint15_radial_7_340" cx="0" cy="0" r="1" gradientUnits="userSpaceOnUse" gradientTransform="translate(6.67946 5.31024) rotate(-61.7024) scale(0.059095 0.0585151)">
<stop offset="0.02" stop-color="#8881BC"/>
<stop offset="0.29" stop-color="#8375B7"/>
<stop offset="0.77" stop-color="#7555AA"/>
<stop offset="1" stop-color="#6D43A3"/>
</radialGradient>
<radialGradient id="paint16_radial_7_340" cx="0" cy="0" r="1" gradientUnits="userSpaceOnUse" gradientTransform="translate(3.89998 5.214) rotate(-61.7019) scale(0.0590953 0.0585161)">
<stop stop-color="#F4BAB3"/>
<stop offset="1" stop-color="#8D6FC7"/>
</radialGradient>
<radialGradient id="paint17_radial_7_340" cx="0" cy="0" r="1" gradientUnits="userSpaceOnUse" gradientTransform="translate(3.03842 4.60078) rotate(-61.7023) scale(0.0590952 0.0585156)">
<stop stop-color="#F4BAB3"/>
<stop offset="1" stop-color="#8D6FC7"/>
</radialGradient>
<radialGradient id="paint18_radial_7_340" cx="0" cy="0" r="1" gradientUnits="userSpaceOnUse" gradientTransform="translate(4.96181 4.98962) rotate(-61.7025) scale(0.0590951 0.0585152)">
<stop stop-color="#F4BAB3"/>
<stop offset="1" stop-color="#8D6FC7"/>
</radialGradient>
<radialGradient id="paint19_radial_7_340" cx="0" cy="0" r="1" gradientUnits="userSpaceOnUse" gradientTransform="translate(5.5904 4.01111) rotate(-61.7024) scale(0.0590951 0.0585151)">
<stop stop-color="#F4BAB3"/>
<stop offset="1" stop-color="#8D6FC7"/>
</radialGradient>
<radialGradient id="paint20_radial_7_340" cx="0" cy="0" r="1" gradientUnits="userSpaceOnUse" gradientTransform="translate(5.35335 2.99185) rotate(-61.7013) scale(0.0590957 0.0585174)">
<stop stop-color="#F4BAB3"/>
<stop offset="1" stop-color="#8D6FC7"/>
</radialGradient>
<radialGradient id="paint21_radial_7_340" cx="0" cy="0" r="1" gradientUnits="userSpaceOnUse" gradientTransform="translate(4.13924 2.4749) rotate(-61.7019) scale(0.0590953 0.0585161)">
<stop stop-color="#F4BAB3"/>
<stop offset="1" stop-color="#8D6FC7"/>
</radialGradient>
<radialGradient id="paint22_radial_7_340" cx="0" cy="0" r="1" gradientUnits="userSpaceOnUse" gradientTransform="translate(3.26304 2.67322) rotate(-61.7019) scale(0.0590953 0.0585161)">
<stop stop-color="#F4BAB3"/>
<stop offset="1" stop-color="#8D6FC7"/>
</radialGradient>
<radialGradient id="paint23_radial_7_340" cx="0" cy="0" r="1" gradientUnits="userSpaceOnUse" gradientTransform="translate(2.6986 3.49738) rotate(-61.7016) scale(0.0590956 0.0585167)">
<stop stop-color="#F4BAB3"/>
<stop offset="1" stop-color="#8D6FC7"/>
</radialGradient>
<linearGradient id="paint24_linear_7_340" x1="10.9187" y1="6.85435" x2="8.17535" y2="5.3773" gradientUnits="userSpaceOnUse">
<stop stop-color="#A43411"/>
<stop offset="1" stop-color="#C73634"/>
</linearGradient>
<linearGradient id="paint25_linear_7_340" x1="4.85669" y1="1.90865" x2="4.94518" y2="1.74424" gradientUnits="userSpaceOnUse">
<stop stop-color="#FFFF18"/>
<stop offset="1" stop-color="#FF7400"/>
</linearGradient>
<linearGradient id="paint26_linear_7_340" x1="2.80836" y1="5.60689" x2="2.8916" y2="5.45227" gradientUnits="userSpaceOnUse">
<stop stop-color="#FFFF18"/>
<stop offset="1" stop-color="#FF7400"/>
</linearGradient>
<linearGradient id="paint27_linear_7_340" x1="7.38679" y1="7.00373" x2="7.23638" y2="6.92272" gradientUnits="userSpaceOnUse">
<stop stop-color="#8DC7FF"/>
<stop offset="0.32" stop-color="#5C4D86"/>
</linearGradient>
<linearGradient id="paint28_linear_7_340" x1="8.41004" y1="4.72777" x2="8.25972" y2="4.6468" gradientUnits="userSpaceOnUse">
<stop stop-color="#8DC7FF"/>
<stop offset="0.32" stop-color="#5C4D86"/>
</linearGradient>
<linearGradient id="paint29_linear_7_340" x1="7.83714" y1="5.76428" x2="7.68673" y2="5.6833" gradientUnits="userSpaceOnUse">
<stop stop-color="#8DC7FF"/>
<stop offset="0.32" stop-color="#5C4D86"/>
</linearGradient>
<radialGradient id="paint30_radial_7_340" cx="0" cy="0" r="1" gradientUnits="userSpaceOnUse" gradientTransform="translate(7.77626 5.70894) rotate(-82.7944) scale(0.503596 0.497334)">
<stop stop-color="#003CEE"/>
<stop offset="0.06" stop-color="#0036D6"/>
<stop offset="0.2" stop-color="#00289E"/>
<stop offset="0.34" stop-color="#001C6D"/>
<stop offset="0.48" stop-color="#001246"/>
<stop offset="0.62" stop-color="#000A27"/>
<stop offset="0.75" stop-color="#000412"/>
<stop offset="0.88" stop-color="#000104"/>
<stop offset="1"/>
</radialGradient>
<radialGradient id="paint31_radial_7_340" cx="0" cy="0" r="1" gradientUnits="userSpaceOnUse" gradientTransform="translate(4.84627 1.81242) rotate(-82.7943) scale(0.401796 0.3968)">
<stop stop-color="#FF9A00"/>
<stop offset="0.09" stop-color="#D68100"/>
<stop offset="0.23" stop-color="#9E5F00"/>
<stop offset="0.36" stop-color="#6E4200"/>
<stop offset="0.5" stop-color="#462A00"/>
<stop offset="0.63" stop-color="#271800"/>
<stop offset="0.76" stop-color="#120B00"/>
<stop offset="0.89" stop-color="#040300"/>
<stop offset="1"/>
</radialGradient>
<radialGradient id="paint32_radial_7_340" cx="0" cy="0" r="1" gradientUnits="userSpaceOnUse" gradientTransform="translate(1.4679 2.42462) rotate(-82.7943) scale(0.401796 0.396799)">
<stop stop-color="#FF9A00"/>
<stop offset="0.09" stop-color="#D68100"/>
<stop offset="0.23" stop-color="#9E5F00"/>
<stop offset="0.36" stop-color="#6E4200"/>
<stop offset="0.5" stop-color="#462A00"/>
<stop offset="0.63" stop-color="#271800"/>
<stop offset="0.76" stop-color="#120B00"/>
<stop offset="0.89" stop-color="#040300"/>
<stop offset="1"/>
</radialGradient>
<radialGradient id="paint33_radial_7_340" cx="0" cy="0" r="1" gradientUnits="userSpaceOnUse" gradientTransform="translate(2.83002 5.5237) rotate(-82.7944) scale(0.207654 0.205072)">
<stop stop-color="#FF9A00"/>
<stop offset="0.09" stop-color="#D68100"/>
<stop offset="0.23" stop-color="#9E5F00"/>
<stop offset="0.36" stop-color="#6E4200"/>
<stop offset="0.5" stop-color="#462A00"/>
<stop offset="0.63" stop-color="#271800"/>
<stop offset="0.76" stop-color="#120B00"/>
<stop offset="0.89" stop-color="#040300"/>
<stop offset="1"/>
</radialGradient>
<radialGradient id="paint34_radial_7_340" cx="0" cy="0" r="1" gradientUnits="userSpaceOnUse" gradientTransform="translate(8.31439 4.72895) rotate(-82.7944) scale(0.194141 0.191727)">
<stop stop-color="#003CEE"/>
<stop offset="0.06" stop-color="#0036D6"/>
<stop offset="0.2" stop-color="#00289E"/>
<stop offset="0.34" stop-color="#001C6D"/>
<stop offset="0.48" stop-color="#001246"/>
<stop offset="0.62" stop-color="#000A27"/>
<stop offset="0.75" stop-color="#000412"/>
<stop offset="0.88" stop-color="#000104"/>
<stop offset="1"/>
</radialGradient>
<radialGradient id="paint35_radial_7_340" cx="0" cy="0" r="1" gradientUnits="userSpaceOnUse" gradientTransform="translate(7.29665 7.01194) rotate(-82.7945) scale(0.194141 0.191725)">
<stop stop-color="#003CEE"/>
<stop offset="0.06" stop-color="#0036D6"/>
<stop offset="0.2" stop-color="#00289E"/>
<stop offset="0.34" stop-color="#001C6D"/>
<stop offset="0.48" stop-color="#001246"/>
<stop offset="0.62" stop-color="#000A27"/>
<stop offset="0.75" stop-color="#000412"/>
<stop offset="0.88" stop-color="#000104"/>
<stop offset="1"/>
</radialGradient>
</defs>
</svg>
